<?xml version="1.0" standalone="no"?>
<!DOCTYPE svg PUBLIC "-//W3C//DTD SVG 1.1//EN" "http://www.w3.org/Graphics/SVG/1.1/DTD/svg11.dtd" >
<svg xmlns="http://www.w3.org/2000/svg">
<metadata></metadata>
<defs>
<font id="TheSerif5-RegularRegular" horiz-adv-x="1116" >
<font-face units-per-em="2048" ascent="1536" descent="-512" />
<missing-glyph horiz-adv-x="446" />
<glyph unicode="&#xfb03;" horiz-adv-x="1943" d="M20 874v144h224v45q0 92 22.5 165.5t72.5 135t141 95.5t218 34q190 0 359 -68q127 82 329 82q149 0 295 -39l-36 -151q-136 39 -263 39q-162 0 -234.5 -70.5t-72.5 -206.5v-61h654v-881q93 -6 172 -28v-109h-519v109q76 22 162 28v737h-469v-737q86 -6 162 -28v-109h-508 v109q76 22 162 28v737h-463v-737q86 -6 162 -28v-109h-524v109q82 22 178 28v737h-224zM428 1018h463v47q0 141 51 227q-112 49 -242 49q-140 0 -206 -63.5t-66 -194.5v-65z" />
<glyph unicode="&#xfb04;" horiz-adv-x="1943" d="M20 874v144h224v45q0 92 22.5 165.5t72.5 135t141 95.5t218 34q188 0 346 -63q121 77 342 77q152 0 343 -28v-1342q93 -6 172 -28v-109h-519v109q76 22 162 28v1206q-100 17 -182 17q-151 0 -219 -61t-68 -191v-90h285v-144h-285v-737q86 -6 162 -28v-109h-508v109 q76 22 162 28v737h-463v-737q86 -6 162 -28v-109h-524v109q82 22 178 28v737h-224zM428 1018h463v104q0 108 41 176q-102 43 -232 43q-140 0 -206 -63.5t-66 -194.5v-65z" />
<glyph horiz-adv-x="0" />
<glyph unicode="&#xd;" horiz-adv-x="446" />
<glyph unicode="&#x9;" horiz-adv-x="446" />
<glyph unicode=" "  horiz-adv-x="446" />
<glyph unicode="&#x09;" horiz-adv-x="446" />
<glyph unicode="&#xa0;" horiz-adv-x="446" />
<glyph unicode="!" horiz-adv-x="616" d="M184 102q0 51 35.5 86t87.5 35t87.5 -35t35.5 -86t-35.5 -85.5t-87.5 -34.5t-87.5 34.5t-35.5 85.5zM199 1448h219l-31 -1104h-156z" />
<glyph unicode="&#x22;" horiz-adv-x="749" d="M106 1513h195l-31 -471h-135zM449 1513h194l-29 -471h-137z" />
<glyph unicode="#" horiz-adv-x="1396" d="M59 391v131h312l41 381h-295v131h309l37 348h155l-36 -348h299l37 348h157l-37 -348h295v-131h-307l-41 -381h293v-131h-307l-41 -391h-158l41 391h-299l-41 -391h-158l41 391h-297zM528 522h299l41 381h-299z" />
<glyph unicode="$" horiz-adv-x="1009" d="M119 926q0 133 91 227t241 117v215h137v-207q102 -2 231 -29v-303h-121q-18 89 -24 168q-52 12 -115 12q-130 0 -192 -51.5t-62 -126.5q0 -47 25.5 -85t67 -62t95 -48.5t108.5 -44.5t108.5 -51.5t95 -68t67 -94t25.5 -129.5q0 -141 -92.5 -243t-253.5 -132v-266h-137v258 q-144 0 -258 32v312h118q17 -89 27 -170q82 -19 137 -19q120 0 193.5 50.5t73.5 152.5q0 56 -32.5 97.5t-84 68t-114 50.5t-125 53t-114 67.5t-84 102t-32.5 147.5z" />
<glyph unicode="%" horiz-adv-x="1640" d="M88 1061q0 82 27.5 150t74 111.5t106 67t124.5 23.5q143 0 230 -78t87 -245q0 -162 -99.5 -259.5t-238.5 -97.5q-141 0 -226 81.5t-85 246.5zM250 47l975 1383l131 -95l-975 -1382zM252 1075q0 -209 156 -209q74 0 119.5 57t45.5 154q0 105 -39.5 154t-121.5 49 q-69 0 -114.5 -56.5t-45.5 -148.5zM877 297q0 109 47.5 191t121.5 121.5t162 39.5q143 0 230.5 -78t87.5 -245q0 -162 -99.5 -259.5t-238.5 -97.5q-141 0 -226 81.5t-85 246.5zM1040 311q0 -209 156 -209q74 0 120 57t46 154q0 105 -40 154t-122 49q-69 0 -114.5 -56.5 t-45.5 -148.5z" />
<glyph unicode="&#x26;" horiz-adv-x="1675" d="M115 381q0 90 38.5 172t97 144t150.5 134q-109 127 -150.5 207t-41.5 164q0 134 97 224t267 90q156 0 242 -77t86 -202q0 -106 -59.5 -201.5t-194.5 -201.5q222 -233 453 -422q117 154 125 374q-69 5 -148 23v113h498v-113q-76 -19 -164 -25q-24 -272 -178 -475 q134 -108 223 -172q90 -11 148 -26v-111h-275q-91 62 -227 174q-221 -194 -539 -194q-214 0 -331 112t-117 289zM303 403q0 -112 81 -190t212 -78q218 0 377 144q-121 102 -249.5 223.5t-217.5 218.5q-105 -83 -154 -159t-49 -159zM391 1212q0 -52 34 -113.5t118 -158.5 q89 72 131.5 138t42.5 141q0 69 -39.5 111t-120.5 42q-73 0 -119.5 -44.5t-46.5 -115.5z" />
<glyph unicode="'" horiz-adv-x="407" d="M106 1513h195l-31 -471h-135z" />
<glyph unicode="(" horiz-adv-x="632" d="M143 582q0 528 283 987h170q-133 -218 -202.5 -467.5t-69.5 -509.5q0 -543 276 -987h-176q-155 249 -218 488.5t-63 488.5z" />
<glyph unicode=")" horiz-adv-x="632" d="M43 -395q276 441 276 985q0 260 -69.5 510t-204.5 469h174q281 -460 281 -985q0 -248 -63.5 -489t-217.5 -490h-176z" />
<glyph unicode="*" horiz-adv-x="765" d="M78 1096l211 92l-211 94l69 119l185 -135l-23 229h137l-24 -229l186 135l68 -119l-211 -92l211 -94l-70 -119l-184 135l22 -229h-137l23 229l-185 -135z" />
<glyph unicode="+" horiz-adv-x="1153" d="M55 451v153h432v449h175v-449h436v-153h-436v-451h-175v451h-432z" />
<glyph unicode="," horiz-adv-x="466" d="M53 -246q174 187 88 295q-26 39 -24.5 79.5t33.5 71.5t79 31q73 0 107 -66q45 -87 -8 -217q-54 -132 -197 -263z" />
<glyph unicode="-" horiz-adv-x="675" d="M96 440v148h484v-148h-484z" />
<glyph unicode="." horiz-adv-x="466" d="M106 109q0 53 37 90t90 37t90 -37t37 -90t-37 -90t-90 -37t-90 37t-37 90z" />
<glyph unicode="/" horiz-adv-x="858" d="M82 0l528 1382h178l-526 -1382h-180z" />
<glyph unicode="0" horiz-adv-x="1255" d="M104 516q0 125 44 231t118 176t171.5 109t205.5 39q127 0 225.5 -40.5t159.5 -112.5t92 -167t31 -208q0 -128 -43.5 -235t-117.5 -178t-173.5 -110.5t-210.5 -39.5q-110 0 -200 32t-158.5 96t-106 168t-37.5 240zM291 532q0 -176 83.5 -285.5t248.5 -109.5q142 0 242 109 t100 284q0 172 -85.5 278.5t-246.5 106.5q-145 0 -243.5 -104.5t-98.5 -278.5z" />
<glyph unicode="1" horiz-adv-x="749" d="M51 936l303 117h150v-914q75 -5 184 -26v-113h-598v113q116 21 223 26v742l-231 -99z" />
<glyph unicode="2" horiz-adv-x="987" d="M104 0v147l275 228q140 116 199 191t59 157q0 90 -55.5 144.5t-155.5 54.5q-78 0 -156 -31q-4 -58 -24 -170h-113v289q148 61 322 61q183 0 283 -88t100 -233q0 -111 -63 -207t-200 -205l-215 -178l-4 -2q131 8 529 8v-166h-781z" />
<glyph unicode="3" horiz-adv-x="946" d="M92 -381l19 166q82 -29 180 -29q157 0 250.5 73.5t93.5 203.5q0 149 -123.5 207t-347.5 34v148q210 0 330 75.5t120 211.5q0 99 -57.5 154t-161.5 55q-60 0 -135 -27q-7 -87 -24 -170h-113v289q140 59 293 59q100 0 177 -26t122.5 -72.5t68.5 -105.5t23 -130 q0 -116 -70.5 -209t-185.5 -137v-2q130 -26 207.5 -116.5t77.5 -215.5q0 -205 -155 -330.5t-405 -125.5q-105 0 -184 20z" />
<glyph unicode="4" d="M29 152l569 903h238v-889h245v-166h-245v-260q79 -5 172 -27v-106h-533v106q95 22 178 27v260h-594zM209 164q117 2 446 2v708h-2z" />
<glyph unicode="5" horiz-adv-x="956" d="M119 -391l16 168q77 -15 146 -15q182 0 279 82.5t97 214.5q0 130 -102 212.5t-285 82.5q-69 0 -110 -2v701h651v-181h-477v-362q247 0 383.5 -116.5t136.5 -305.5q0 -140 -75 -252t-209.5 -175.5t-303.5 -63.5q-76 0 -147 12z" />
<glyph unicode="6" horiz-adv-x="1191" d="M135 559q0 217 54 387t151.5 278t230 164t293.5 56q40 0 94 -4v-164q-62 10 -112 10q-212 0 -336 -124t-166 -345l-16 -80l2 -2q47 78 135 123t203 45q196 0 310 -117.5t114 -314.5q0 -216 -138 -353.5t-358 -137.5t-340.5 153.5t-120.5 425.5zM346 461 q0 -88 28.5 -159.5t92.5 -118t154 -46.5q126 0 202 86.5t76 220.5q0 138 -73 218.5t-199 80.5q-133 0 -207 -83.5t-74 -198.5z" />
<glyph unicode="7" horiz-adv-x="946" d="M51 700v353h836v-156q-266 -597 -424 -1290h-209q174 696 430 1280q-35 -2 -471 -2q-9 -93 -29 -185h-133z" />
<glyph unicode="8" horiz-adv-x="1128" d="M115 334q0 55 17.5 105.5t43 88.5t66 76.5t75 64t82.5 56.5h-2q-131 76 -196.5 162t-65.5 200q0 162 121 263.5t317 101.5q189 0 299.5 -92t110.5 -240q0 -108 -64 -194t-204 -174q51 -31 87 -55t78.5 -61t68.5 -74t43.5 -88t17.5 -107q0 -121 -64.5 -210.5t-169 -133 t-233.5 -43.5q-204 0 -316 97.5t-112 256.5zM311 354q0 -99 68.5 -159t185.5 -60q107 0 178.5 56.5t71.5 150.5q0 50 -18.5 92.5t-57 79.5t-82.5 66.5t-110 66.5h-2q-113 -68 -173.5 -137.5t-60.5 -155.5zM328 1098q0 -80 58.5 -141.5t182.5 -129.5h2q120 75 171 137t51 138 q0 85 -61 141.5t-169 56.5q-110 0 -172.5 -56.5t-62.5 -145.5z" />
<glyph unicode="9" horiz-adv-x="1191" d="M100 578q0 213 135.5 352t352.5 139q104 0 188.5 -35t148 -106t98 -186t34.5 -267q0 -425 -198 -651.5t-546 -226.5q-61 0 -123 12v170q74 -19 134 -19q213 0 336 109.5t174 325.5q1 7 7.5 46.5t8.5 57.5h-2q-50 -72 -137 -114t-191 -42q-195 0 -307.5 118t-112.5 317z M295 608q0 -143 70.5 -221t199.5 -78q124 0 202.5 79t78.5 187q0 152 -72.5 245t-204.5 93q-121 0 -197.5 -87.5t-76.5 -217.5z" />
<glyph unicode=":" horiz-adv-x="526" d="M135 109q0 53 37.5 90t91.5 37q52 0 89.5 -37t37.5 -90t-37.5 -90t-89.5 -37q-54 0 -91.5 37t-37.5 90zM135 707q0 54 37.5 90.5t91.5 36.5q53 0 90 -36.5t37 -90.5q0 -53 -37.5 -90t-89.5 -37q-54 0 -91.5 37t-37.5 90z" />
<glyph unicode=";" horiz-adv-x="526" d="M84 -246q174 187 88 295q-26 39 -24.5 79.5t34 71.5t80.5 31q72 0 107 -66q45 -87 -8 -217q-54 -133 -197 -263zM135 707q0 54 37.5 90.5t91.5 36.5q53 0 90 -36.5t37 -90.5q0 -53 -37.5 -90t-89.5 -37q-54 0 -91.5 37t-37.5 90z" />
<glyph unicode="&#x3c;" horiz-adv-x="1026" d="M115 516l647 590l119 -119l-529 -469l529 -457l-117 -124z" />
<glyph unicode="=" horiz-adv-x="1200" d="M145 268v152h908v-152h-908zM145 618v152h908v-152h-908z" />
<glyph unicode="&#x3e;" horiz-adv-x="1026" d="M143 53l529 469l-529 457l117 125l649 -580l-647 -590z" />
<glyph unicode="?" horiz-adv-x="866" d="M147 1290l25 168q260 -15 414.5 -128.5t154.5 -270.5q0 -50 -14 -95t-37.5 -79.5t-53 -67.5t-60 -63t-59.5 -61t-51 -67t-34.5 -76t-10 -92.5t22.5 -113.5h-180q-29 83 -29 154t22.5 122.5t56.5 96t73.5 83t74 74t57 78t22.5 86.5q0 101 -110 171t-284 81zM240 102 q0 51 35 86t87 35t87.5 -35t35.5 -86t-35.5 -85.5t-87.5 -34.5t-87 34.5t-35 85.5z" />
<glyph unicode="@" horiz-adv-x="1705" d="M139 631q0 134 40 255.5t112 216t168 164.5t212.5 107t241.5 37q153 0 278 -47.5t205.5 -130t123.5 -190.5t43 -230q0 -228 -110 -346.5t-292 -118.5q-107 0 -155.5 57t-36.5 136h-4q-29 -75 -104 -134t-165 -59q-182 0 -182 240q0 98 27 183t77.5 150t129.5 102.5 t178 37.5q106 0 227 -27l-63 -354q-20 -106 6 -152.5t94 -46.5q211 0 211 324q0 74 -18 141t-57 127t-96 104t-140.5 69.5t-184.5 25.5q-124 0 -235 -47t-191.5 -128.5t-128 -199t-47.5 -252.5q0 -243 142.5 -393t398.5 -150q156 0 299 48v-144q-60 -21 -150.5 -33 t-169.5 -12q-211 0 -367 85.5t-236.5 236t-80.5 348.5zM666 616q0 -131 71 -131q76 0 140 99t96 264l16 82q-34 10 -100 10q-73 0 -126 -55t-75 -126.5t-22 -142.5z" />
<glyph unicode="A" horiz-adv-x="1415" d="M12 0v111q94 20 125 22l459 1249h221l461 -1249q31 -2 125 -22v-111h-496v109q81 20 162 26l-80 221h-579l-80 -221q81 -6 162 -26v-109h-480zM459 506h481l-178 481q-38 98 -62 207h-4q-28 -117 -63 -209z" />
<glyph unicode="B" horiz-adv-x="1226" d="M57 0v109q82 22 179 28v1108q-92 6 -179 29v108h174q41 0 181 3.5t231 3.5q222 0 335.5 -87t113.5 -245q0 -109 -69 -198t-179 -124v-4q93 -16 157 -65t92.5 -113.5t28.5 -138.5q0 -38 -6.5 -75.5t-24 -80t-43.5 -79.5t-68.5 -71.5t-96.5 -59.5t-129.5 -39.5 t-165.5 -14.5q-35 0 -157 3t-195 3h-179zM422 158q68 -11 176 -11q163 0 244.5 71t81.5 190q0 235 -373 235q-96 0 -129 -2v-483zM422 786q39 -2 127 -2q168 0 257 63.5t89 178.5q0 101 -64.5 156t-220.5 55q-74 0 -188 -4v-447z" />
<glyph unicode="C" horiz-adv-x="1210" d="M94 655q0 163 40.5 297t122 234t214 155.5t305.5 55.5q153 0 324 -41v-336h-133q-15 72 -27 184q-100 25 -205 25q-109 0 -193.5 -41.5t-136.5 -115.5t-78 -171.5t-26 -214.5q0 -534 479 -534q81 0 168.5 19.5t153.5 51.5l12 -172q-187 -69 -381 -69q-314 0 -476.5 175.5 t-162.5 497.5z" />
<glyph unicode="D" horiz-adv-x="1449" d="M57 0v109q82 22 179 28v1108q-92 6 -179 29v108h174q49 0 192.5 3t223.5 4q343 0 526 -167t183 -515q0 -174 -56.5 -310.5t-159.5 -224.5t-244 -134t-312 -46q-77 0 -197.5 4t-150.5 4h-179zM422 164q80 -12 184 -12q254 0 402.5 135.5t148.5 406.5q0 541 -526 541 q-50 0 -209 -6v-1065z" />
<glyph unicode="E" horiz-adv-x="1087" d="M57 0v109q82 22 179 28v1108q-92 6 -179 29v108h893v-319h-131q-21 108 -26 172h-371v-455h295q15 95 28 142h115v-420h-115q-18 66 -28 141h-295v-491h373q9 79 28 176h131v-328h-897z" />
<glyph unicode="F" horiz-adv-x="1028" d="M57 0v109q82 22 179 28v1108q-92 6 -179 29v108h895v-321h-131q-21 105 -28 172h-371v-465h303q8 48 29 139h114v-424h-114q-19 76 -29 140h-303v-486q96 -6 178 -28v-109h-543z" />
<glyph unicode="G" horiz-adv-x="1423" d="M88 664q0 159 52 294.5t146.5 233.5t234.5 153.5t310 55.5q179 0 373 -49v-326h-135q-20 113 -25 182q-121 31 -229 31q-109 0 -203 -35t-166.5 -102t-114.5 -174t-42 -242q0 -255 138 -398t374 -143q124 0 243 37v385q-85 6 -176 27v111h498v-113q-74 -17 -135 -25v-506 q-212 -79 -457 -79q-316 0 -501 181.5t-185 500.5z" />
<glyph unicode="H" horiz-adv-x="1550" d="M57 0v109q82 22 179 28v1108q-92 6 -179 29v108h531v-110q-93 -22 -166 -27v-448h706v448q-75 5 -163 27v110h528v-108q-87 -23 -178 -29v-1108q96 -6 178 -28v-109h-528v111q82 20 163 26v500h-706v-500q79 -6 166 -26v-111h-531z" />
<glyph unicode="I" horiz-adv-x="657" d="M57 0v109q82 22 179 28v1108q-92 6 -179 29v108h543v-108q-87 -23 -178 -29v-1108q96 -6 178 -28v-109h-543z" />
<glyph unicode="J" horiz-adv-x="708" d="M10 2v164q71 -23 142 -23q88 0 129 49t41 181v872q-92 6 -179 29v108h508v-110q-62 -17 -141 -27v-885q0 -181 -81.5 -277.5t-264.5 -96.5q-85 0 -154 16z" />
<glyph unicode="K" horiz-adv-x="1363" d="M57 0v109q82 22 179 28v1108q-92 6 -179 29v108h518v-110q-82 -21 -153 -27v-526l493 528q-75 7 -141 25v110h514v-110q-87 -20 -143 -25l-508 -530l539 -582q63 -5 143 -24v-111h-524v111q66 16 129 22l-502 561v-557q77 -7 153 -26v-111h-518z" />
<glyph unicode="L" horiz-adv-x="962" d="M57 0v109q82 22 179 28v1108q-92 6 -179 29v108h543v-108q-87 -23 -178 -29v-1091h354q5 41 31 186h129v-340h-879z" />
<glyph unicode="M" horiz-adv-x="1902" d="M29 0v111q66 19 125 22l168 1112q-92 6 -179 29v108h430l293 -870q61 -183 76 -274h4q20 95 76 262l301 882h434v-108q-87 -23 -178 -29l172 -1112q57 -3 123 -22v-111h-483v109q78 20 159 26l-100 686q-31 211 -41 322h-4q-29 -125 -72 -254l-295 -889h-202l-281 829 q-70 209 -86 314h-4q-2 -28 -37 -334l-84 -674q84 -6 162 -26v-109h-477z" />
<glyph unicode="N" horiz-adv-x="1540" d="M57 0v109q92 24 179 30v1106q-92 6 -179 29v108h426l529 -847q57 -92 162 -287q-15 247 -15 995q-59 4 -160 29v110h484v-110q-74 -21 -142 -29v-1243h-245l-535 856q-82 135 -155 287q12 -204 12 -1004q71 -5 164 -28v-111h-525z" />
<glyph unicode="O" horiz-adv-x="1443" d="M86 676q0 169 51.5 307.5t141 229.5t208.5 140.5t254 49.5q285 0 451 -180.5t166 -515.5q0 -169 -52 -307.5t-141.5 -229.5t-208.5 -140.5t-254 -49.5q-304 0 -460 186t-156 510zM287 702q0 -256 109.5 -405.5t322.5 -149.5q86 0 163.5 34.5t139.5 99.5t98.5 169.5 t36.5 233.5q0 265 -114 409t-322 144q-87 0 -164.5 -35.5t-138 -101t-96 -168.5t-35.5 -230z" />
<glyph unicode="P" horiz-adv-x="1103" d="M57 0v109q82 22 179 28v1108q-92 6 -179 29v108h152q24 0 155.5 4.5t208.5 4.5q236 0 365 -109.5t129 -296.5q0 -202 -149.5 -331.5t-382.5 -129.5q-76 0 -113 4v-391q96 -6 178 -28v-109h-543zM422 688q47 -8 113 -8q155 1 246 78.5t91 208.5t-79 199.5t-238 68.5 q-92 0 -133 -2v-545z" />
<glyph unicode="Q" horiz-adv-x="1441" d="M86 676q0 169 51.5 307.5t141 229.5t208.5 140.5t254 49.5q285 0 451 -180.5t166 -515.5q0 -169 -52 -307.5t-141.5 -229.5t-208.5 -140.5t-254 -49.5q-304 0 -460 186t-156 510zM287 702q0 -256 109.5 -405.5t322.5 -149.5q86 0 163.5 34.5t139.5 99.5t98.5 169.5 t36.5 233.5q0 265 -114 409t-322 144q-87 0 -164.5 -35.5t-138 -101t-96 -168.5t-35.5 -230zM655 -147q58 7 114 7q52 0 103 -6q107 -13 179 -34.5t177 -33.5q47 -5 94 -5q59 0 118 8v-168q-72 -10 -141 -10q-25 0 -49 1q-92 5 -156 21.5t-139.5 32.5t-140.5 24q-27 3 -60 3 q-45 0 -99 -6v166z" />
<glyph unicode="R" horiz-adv-x="1206" d="M57 0v109q82 22 179 28v1108q-92 6 -179 29v108h160q12 0 139.5 4.5t225.5 4.5q105 0 188.5 -19.5t147.5 -61.5t98.5 -112.5t34.5 -167.5q0 -162 -110.5 -264t-285.5 -121q55 -69 90 -125l261 -381q91 -12 157 -26v-113h-305l-401 621h-35v-484q74 -6 153 -26v-111h-518z M422 762q46 -4 119 -4q147 0 230 68t83 180q0 122 -76 176.5t-229 54.5q-49 0 -127 -4v-471z" />
<glyph unicode="S" horiz-adv-x="1034" d="M104 1010q0 174 131.5 282.5t358.5 108.5q114 0 266 -27v-317h-135q-19 107 -25 178q-48 10 -114 10q-138 0 -211.5 -58t-73.5 -157q0 -60 35 -105t90.5 -73.5t122.5 -54.5t134.5 -57t123 -70.5t90.5 -106.5t35 -155q0 -189 -139 -307.5t-373 -118.5q-168 0 -295 34v328 h135q18 -101 27 -182q82 -19 143 -19q136 0 220.5 58.5t84.5 179.5q0 63 -35 109t-90.5 74.5t-123 54t-134.5 56t-122.5 70.5t-90.5 107.5t-35 157.5z" />
<glyph unicode="T" horiz-adv-x="1148" d="M39 1038v344h1071v-344h-129q-4 29 -11.5 70.5t-11.5 69.5t-6 51h-284v-1092q96 -6 178 -28v-109h-543v109q82 22 178 28v1092h-284q-4 -46 -29 -191h-129z" />
<glyph unicode="U" horiz-adv-x="1464" d="M57 1272v110h492v-110q-88 -21 -164 -27v-766q0 -61 9 -109.5t32 -93.5t61 -75t99.5 -48t142.5 -18q184 0 269 87t85 292v731q-70 5 -163 27v110h489v-110q-67 -18 -141 -27v-719q0 -271 -139.5 -408.5t-411.5 -137.5q-125 0 -219 27.5t-150 71.5t-90.5 109.5t-46.5 131 t-12 145.5v780q-81 10 -142 27z" />
<glyph unicode="V" horiz-adv-x="1386" d="M12 1272v110h494v-108q-83 -21 -162 -27l256 -753q48 -133 92 -287h2q31 122 94 301l267 739q-74 5 -162 27v108h479v-110q-66 -20 -123 -23l-456 -1249h-211l-445 1249q-54 3 -125 23z" />
<glyph unicode="W" horiz-adv-x="2000" d="M14 1272v110h486v-108q-88 -21 -164 -27l194 -766q34 -126 56 -266h2q22 138 55 256l256 911h213l266 -917q40 -148 54 -246h2q20 113 47 225l198 803q-72 5 -161 27v108h469v-110q-66 -20 -123 -23l-322 -1249h-231l-264 930q-33 114 -52 239h-2q-15 -118 -49 -237 l-258 -932h-225l-324 1249q-52 3 -123 23z" />
<glyph unicode="X" horiz-adv-x="1382" d="M23 0v111q89 20 145 22l407 574l-387 542q-52 2 -141 23v110h531v-110q-70 -19 -150 -25l272 -405l277 405q-77 6 -148 25v110h506v-110q-92 -21 -147 -25l-383 -534l418 -580q60 -3 139 -22v-111h-533v111q65 17 146 24l-297 440l-295 -440q86 -8 147 -24v-111h-507z " />
<glyph unicode="Y" horiz-adv-x="1218" d="M12 1272v110h486v-110q-74 -19 -152 -25l166 -362q66 -141 98 -221h4q14 35 31.5 73.5t41.5 89t34 72.5l164 348q-81 6 -152 25v110h471v-110q-66 -20 -123 -23l-383 -760v-352q97 -6 179 -28v-109h-543v109q82 22 178 28v350l-375 762q-55 3 -125 23z" />
<glyph unicode="Z" horiz-adv-x="1103" d="M90 0v139l594 922q68 104 115 166q-136 -4 -281 -4h-250q-2 -29 -24 -176h-135v335h903v-143l-627 -958q-75 -115 -80 -121q41 4 307 4h246q8 72 27 182h131v-346h-926z" />
<glyph unicode="[" horiz-adv-x="659" d="M176 -408v1987h406v-141h-234v-1700h234v-146h-406z" />
<glyph unicode="\" horiz-adv-x="837" d="M66 1382h170l534 -1382h-174z" />
<glyph unicode="]" horiz-adv-x="659" d="M78 -262h233v1700h-233v141h405v-1987h-405v146z" />
<glyph unicode="^" horiz-adv-x="1095" d="M127 770l338 612h147l355 -610l-138 -70l-294 543l-283 -543z" />
<glyph unicode="_" horiz-adv-x="1024" d="M0 -371h1024v-145h-1024v145z" />
<glyph unicode="`" horiz-adv-x="755" d="M195 1378l94 129l291 -225l-76 -106z" />
<glyph unicode="a" horiz-adv-x="1105" d="M94 233q0 168 162.5 265t450.5 98v78q0 112 -49 165.5t-169 53.5q-99 0 -188 -25q-3 -42 -25 -166h-112v281q151 55 348 55q108 0 183.5 -24t117.5 -70.5t60 -106t18 -139.5v-555q83 -14 172 -20v-109q-132 -17 -253 -17q-47 0 -93 3q0 146 10 203h-4q-38 -97 -131 -159 t-215 -62q-129 0 -206 66t-77 185zM274 266q0 -64 42.5 -102.5t113.5 -38.5q80 0 144.5 48t98.5 121.5t34 154.5v18q-122 0 -209.5 -17t-134.5 -46.5t-68 -63.5t-21 -74z" />
<glyph unicode="b" horiz-adv-x="1163" d="M16 1372v109q138 17 265 17q50 0 98 -3v-494q0 -109 -19 -190l5 -2q41 107 130 167t205 60q181 0 278 -123.5t97 -355.5q0 -267 -142 -419t-388 -152q-196 0 -350 41v1325q-82 13 -179 20zM379 156q83 -25 180 -25q153 0 238.5 99.5t85.5 310.5q0 344 -226 344 q-87 0 -152.5 -62t-95.5 -149.5t-30 -179.5v-338z" />
<glyph unicode="c" horiz-adv-x="913" d="M84 475q0 167 55 290.5t171.5 195t285.5 71.5q134 0 244 -35v-297h-115q-17 82 -27 166q-55 19 -127 19q-140 0 -217.5 -102t-77.5 -277q0 -82 15 -145t48.5 -113.5t95.5 -77.5t149 -27q138 0 250 56l12 -160q-145 -53 -301 -53q-79 0 -145 14.5t-125.5 50t-101 90 t-65.5 139.5t-24 195z" />
<glyph unicode="d" horiz-adv-x="1181" d="M84 461q0 266 141.5 418.5t384.5 152.5q70 0 172 -10v330q-83 14 -178 20v109q138 17 265 17q50 0 98 -3v-1352q83 -14 172 -20v-109q-132 -17 -255 -17q-48 0 -96 3q0 123 17 207l-4 2q-43 -105 -133.5 -166t-208.5 -61q-184 0 -279.5 126t-95.5 353zM279 477 q0 -344 225 -344q66 0 120.5 36t88 94t51.5 126t18 137v338q-88 23 -180 23q-153 0 -238 -99t-85 -311z" />
<glyph unicode="e" horiz-adv-x="1040" d="M84 504q0 153 52.5 273t157 189.5t245.5 69.5q104 0 184 -33.5t127.5 -93.5t71.5 -135.5t24 -165.5q0 -36 -6 -88h-666v-27q0 -180 75 -268q81 -94 247 -94q162 0 297 64l16 -150q-151 -63 -344 -63q-481 0 -481 522zM283 651h475v10q0 105 -59 171q-62 68 -169 69 q-99 0 -165.5 -68t-81.5 -182z" />
<glyph unicode="f" horiz-adv-x="737" d="M20 874v144h224v76q0 208 101 310.5t294 102.5q81 0 170 -18l-16 -154q-73 23 -154 23q-108 0 -159.5 -63.5t-51.5 -198.5v-78h285v-144h-285v-737q96 -6 178 -28v-109h-540v109q82 22 178 28v737h-224z" />
<glyph unicode="g" horiz-adv-x="1138" d="M84 -231q0 87 47.5 157t120.5 107q-100 48 -100 149q0 54 30.5 100t81.5 72q-71 40 -110 116t-39 175q0 167 120 279t328 112q83 0 160 -18h346v-146h-172q86 -67 86 -198q0 -169 -115.5 -274t-330.5 -105q-78 0 -127 14q-64 -28 -64 -86q0 -43 41 -61.5t133 -18.5h189 q165 0 255.5 -75t90.5 -209q0 -166 -153 -277.5t-390 -111.5q-200 0 -314 77.5t-114 221.5zM268 -197q0 -88 75.5 -137t197.5 -49q154 0 241.5 59.5t87.5 157.5q0 73 -54 114.5t-159 41.5h-200h-64q-60 -31 -92.5 -79.5t-32.5 -107.5zM297 662q0 -113 65.5 -173.5 t186.5 -60.5q117 0 184.5 61t67.5 173q0 111 -64 174t-182 63q-119 0 -188.5 -66t-69.5 -171z" />
<glyph unicode="h" horiz-adv-x="1263" d="M43 0v109q82 22 178 28v1215q-83 14 -178 20v109q138 17 264 17q49 0 96 -3v-481q0 -132 -16 -203l4 -2q45 107 137 168t217 61q306 0 306 -325v-576q97 -7 172 -28v-109h-355v657q0 114 -39.5 171t-134.5 57q-126 0 -208.5 -113.5t-82.5 -282.5v-352q79 -6 166 -26v-111 h-526z" />
<glyph unicode="i" horiz-adv-x="636" d="M59 0v109q82 22 179 28v737q-93 15 -179 21v109q138 17 265 17q50 0 98 -3v-881q93 -6 172 -28v-109h-535zM209 1307q0 49 36 83.5t87 34.5q50 0 85.5 -34t35.5 -84q0 -49 -35.5 -85t-85.5 -36q-51 0 -87 35t-36 86z" />
<glyph unicode="j" horiz-adv-x="600" d="M-72 -502l15 160q75 -23 133 -23q95 0 130.5 50t35.5 186v1003q-93 15 -179 21v109q138 17 265 17q50 0 98 -3v-1131q0 -211 -80 -309t-274 -98q-80 0 -144 18zM213 1307q0 50 35 84t86 34q52 0 87.5 -33.5t35.5 -84.5q0 -50 -36 -85.5t-87 -35.5t-86 35t-35 86z" />
<glyph unicode="k" horiz-adv-x="1136" d="M43 0v109q82 22 178 28v1215q-83 14 -178 20v109q138 17 264 17q49 0 96 -3v-942l297 330q-88 11 -120 24v111h485v-111q-51 -15 -145 -26l-308 -328l322 -414q38 -3 164 -26v-113h-299l-396 532v-395q82 -6 154 -26v-111h-514z" />
<glyph unicode="l" horiz-adv-x="618" d="M43 0v109q82 22 178 28v1215q-83 14 -178 20v109q138 17 264 17q49 0 96 -3v-1358q96 -6 175 -28v-109h-535z" />
<glyph unicode="m" horiz-adv-x="1902" d="M59 0v109q82 22 179 28v737q-93 15 -179 21v109q139 17 264 17q49 0 95 -3q0 -109 -17 -213l5 -2q43 108 136.5 171.5t215.5 63.5q61 0 110.5 -16.5t79 -41t50.5 -57t30 -60.5t12 -56q17 40 45 77.5t70 73.5t103 58t131 22q301 0 301 -333v-568q96 -6 172 -28v-109h-355 v653q0 114 -36.5 173t-129.5 59q-114 0 -200 -111.5t-86 -288.5v-348q80 -6 166 -26v-111h-349v655q0 52 -6.5 90t-23.5 71.5t-51 51t-84 17.5q-119 0 -202 -114t-83 -286v-348q82 -6 164 -26v-111h-527z" />
<glyph unicode="n" horiz-adv-x="1280" d="M59 0v109q82 22 179 28v737q-93 15 -179 21v109q139 17 262 17q48 0 95 -3q0 -124 -15 -213l2 -2q46 109 139 172t222 63q84 0 144.5 -25t95 -70.5t50 -102t15.5 -127.5v-576q93 -6 172 -28v-109h-356v657q0 114 -38.5 171t-133.5 57q-127 0 -209 -113t-82 -283v-352 q82 -6 164 -26v-111h-527z" />
<glyph unicode="o" d="M80 500q0 150 59 271t172.5 193t263.5 72q100 0 181.5 -28.5t145 -88t98 -159.5t34.5 -234q0 -234 -137.5 -389t-359.5 -155q-215 0 -336 129t-121 389zM272 518q0 -185 74 -283t213 -98q122 0 202.5 97t80.5 282q0 176 -72 271.5t-211 95.5q-120 0 -203.5 -93.5 t-83.5 -271.5z" />
<glyph unicode="p" horiz-adv-x="1202" d="M57 -395q89 20 179 26v1243q-93 15 -179 21v109q139 17 262 17q48 0 93 -3q0 -136 -15 -207l4 -2q43 107 132 167t208 60q181 0 278 -123.5t97 -355.5q0 -271 -138 -420t-386 -149q-101 0 -172 12v-369q89 -6 178 -26v-111h-541v111zM420 156q83 -25 180 -25 q152 0 238 99.5t86 310.5q0 344 -226 344q-66 0 -120.5 -36t-88 -94t-51.5 -126t-18 -137v-336z" />
<glyph unicode="q" horiz-adv-x="1142" d="M88 459q0 269 142.5 422t394.5 153q162 0 344 -28v-1375q86 -6 176 -26v-111h-537v111q89 20 178 26v392q0 106 15 182l-4 2q-41 -105 -129.5 -165t-202.5 -60q-182 0 -279.5 121t-97.5 356zM283 477q0 -344 223 -344q66 0 121 36t88.5 94t52 127t18.5 138v338 q-92 21 -182 21q-152 0 -236.5 -99.5t-84.5 -310.5z" />
<glyph unicode="r" horiz-adv-x="802" d="M59 0v109q82 22 179 28v737q-93 15 -179 21v109q139 17 262 17q48 0 95 -3q0 -116 -21 -242h2q18 57 46.5 104t71.5 87q43 41 108 59q45 13 98 12q23 0 47 -2l-8 -180q-33 5 -63 5q-125 -1 -192 -91q-83 -112 -83 -360v-273q96 -6 178 -28v-109h-541z" />
<glyph unicode="s" horiz-adv-x="892" d="M96 731q0 135 108 220t302 85q114 0 235 -28v-279h-112q-19 80 -25 162q-58 10 -115 10q-101 0 -153.5 -39.5t-52.5 -109.5q0 -46 28 -78.5t73 -50.5t99.5 -33.5t109 -35.5t99.5 -47.5t73 -77t28 -118.5q0 -142 -118.5 -235.5t-316.5 -93.5q-141 0 -239 26v289h112 q15 -73 25 -162q58 -10 121 -10q104 0 167.5 43.5t63.5 116.5q0 40 -22 69.5t-58 45.5t-82 31.5t-94 28t-94 34.5t-82 49.5t-58 76t-22 111.5z" />
<glyph unicode="t" horiz-adv-x="759" d="M6 874v144h209v330l184 51v-381h285v-144h-285v-520q0 -126 30 -169.5t116 -43.5q61 0 139 19v-156q-95 -20 -197 -20q-154 0 -213 69t-59 236v585h-209z" />
<glyph unicode="u" horiz-adv-x="1259" d="M43 895v109q130 17 257 17q50 0 99 -3v-658q0 -114 38.5 -170.5t133.5 -56.5q126 0 208.5 113t82.5 282v346q-73 12 -164 19v111q132 17 253 17q47 0 93 -3v-875q83 -14 175 -20v-109q-134 -17 -257 -17q-48 0 -94 3q0 121 15 213l-4 2q-44 -108 -137.5 -171.5 t-221.5 -63.5q-305 0 -305 325v569q-94 15 -172 21z" />
<glyph unicode="v" horiz-adv-x="1144" d="M14 907v111h473v-111q-72 -19 -143 -22l170 -500q37 -108 61 -199h3q24 89 59 195l176 504q-73 3 -145 22v111h467v-111q-80 -19 -131 -24l-322 -883h-221l-316 883q-51 5 -131 24z" />
<glyph unicode="w" horiz-adv-x="1755" d="M12 907v111h469v-111q-68 -19 -141 -22l125 -457q61 -223 63 -231h2q23 109 70 249l182 572h191l184 -572q52 -161 72 -249h2q14 56 63 223l133 465q-73 3 -141 22v111h457v-111q-80 -19 -131 -24l-279 -883h-211l-200 600q-33 90 -58 203h-2q-28 -109 -74 -256 l-170 -547h-212l-263 883q-51 5 -131 24z" />
<glyph unicode="x" horiz-adv-x="1112" d="M18 0v113q117 24 175 28l249 369l-235 367q-60 4 -172 28v113h311l215 -373l221 373h297v-113q-117 -24 -174 -28l-229 -359l246 -377q53 -4 172 -28v-113h-322l-225 383l-223 -383h-306z" />
<glyph unicode="y" horiz-adv-x="1148" d="M12 907v111h467v-111q-62 -19 -133 -22l154 -443q38 -109 78 -254h4q16 70 94 304l137 393q-71 3 -133 22v111h455v-111q-75 -19 -129 -24l-361 -992q-58 -160 -115.5 -247t-134.5 -126.5t-192 -39.5q-75 0 -140 12l15 166q77 -23 135 -23q85 0 139.5 53.5t108.5 198.5 l43 115h-45l-316 883q-57 5 -131 24z" />
<glyph unicode="z" horiz-adv-x="923" d="M90 0v133l522 744q-148 -5 -252 -5h-120q-10 -84 -25 -151h-115v297h715v-133l-514 -735q110 4 252 4h133q10 82 27 155h114v-309h-737z" />
<glyph unicode="{" horiz-adv-x="698" d="M59 575v146q123 6 170 52t47 169v240q0 190 74 293.5t246 103.5h37v-141q-106 0 -146.5 -53t-40.5 -197v-238q0 -264 -190 -299v-4q92 -14 141 -91t49 -212v-356q0 -144 40.5 -197t146.5 -53v-146h-37q-171 0 -245.5 98t-74.5 302v358q0 120 -48.5 169.5t-168.5 55.5z " />
<glyph unicode="|" horiz-adv-x="571" d="M211 -512v2048h145v-2048h-145z" />
<glyph unicode="}" horiz-adv-x="692" d="M78 -262q106 0 146 53t40 197v356q0 134 49 211.5t142 91.5v4q-191 24 -191 291v246q0 144 -40 197t-146 53v141h37q172 0 245.5 -103.5t73.5 -293.5v-232q0 -128 46.5 -175.5t170.5 -53.5v-146q-120 -6 -168.5 -55.5t-48.5 -169.5v-358q0 -205 -74 -302.5t-245 -97.5 h-37v146z" />
<glyph unicode="~" horiz-adv-x="1185" d="M100 592q129 113 275 113q68 0 130.5 -20.5t102 -45.5t95.5 -45.5t112 -20.5q97 0 207 99l61 -131q-124 -127 -280 -127q-67 0 -132 20.5t-107.5 45t-97.5 45t-106 20.5q-99 0 -200 -88z" />
<glyph unicode="&#xa1;" horiz-adv-x="616" d="M180 918q0 51 35.5 85.5t87.5 34.5q53 0 89 -34.5t36 -85.5t-36 -86t-89 -35q-52 0 -87.5 35t-35.5 86zM199 -428l26 1104h154l29 -1104h-209z" />
<glyph unicode="&#xa2;" horiz-adv-x="966" d="M88 559q0 198 106 333t289 163v188h146v-182q101 0 229 -33v-299h-115q-22 110 -26 170q-66 16 -133 16q-139 0 -222 -92.5t-83 -253.5q0 -72 17 -130t53 -105t100 -72.5t151 -25.5q139 0 254 59l12 -162q-116 -46 -237 -57v-215h-146v217q-190 19 -292.5 144t-102.5 337 z" />
<glyph unicode="&#xa3;" horiz-adv-x="1075" d="M119 0v139q124 90 180.5 173.5t56.5 199.5q0 12 -1.5 34t-5 62.5t-5.5 71.5h-223v141h207q-2 21 -9 80t-10.5 100t-3.5 72q0 197 93 286t280 89q102 0 205 -23v-295h-115q-23 133 -27 164q-40 4 -67 4q-91 0 -138 -56.5t-47 -156.5q0 -29 23 -264h293v-141h-279 q11 -101 11 -143q0 -122 -46 -209t-147 -176q74 8 156 8h303q9 90 28 178h127v-338h-839z" />
<glyph unicode="&#xa4;" horiz-adv-x="1118" d="M106 61l148 185q-80 96 -80 266q0 157 90 256l-158 199l136 98l151 -207q73 37 166 37q98 0 164 -35l154 205l133 -100l-160 -199q68 -88 68 -242q0 -147 -82 -248l174 -213l-138 -102l-163 221q-73 -47 -181 -47q-78 0 -139 25l-145 -197zM340 518q0 -112 50 -179 t159 -67q84 0 143.5 67.5t59.5 182.5q0 110 -50.5 173t-160.5 63q-87 0 -144 -65t-57 -175z" />
<glyph unicode="&#xa5;" horiz-adv-x="1220" d="M18 1272v110h480v-110q-69 -19 -152 -25l162 -346q96 -202 104 -221h2q15 34 34.5 74t44.5 89.5t38 76.5l156 327q-77 6 -152 25v110h469v-110q-71 -20 -125 -23l-325 -633h290v-114h-344v-142h344v-116h-344v-115q92 -6 179 -29v-100h-543v100q87 23 178 29v115h-342 v116h342v142h-342v114h289l-318 633q-55 3 -125 23z" />
<glyph unicode="&#xa6;" horiz-adv-x="571" d="M211 262h145v-774h-145v774zM211 782v754h145v-754h-145z" />
<glyph unicode="&#xa7;" horiz-adv-x="1011" d="M145 727q0 86 37.5 160.5t98.5 122.5q-27 36 -43.5 87.5t-16.5 100.5q0 139 94 231.5t277 92.5q72 0 141 -15l-14 -155q-64 18 -135 18q-168 0 -168 -164q0 -47 32.5 -104t82 -109t106.5 -116.5t106.5 -126.5t82 -140t32.5 -155q0 -82 -37 -155.5t-96 -121.5 q63 -94 63 -203q0 -48 -13.5 -93t-43.5 -87t-74 -73.5t-110.5 -50.5t-147.5 -19q-77 0 -151 18l14 164q74 -24 148 -24q94 0 139 45t45 120q0 43 -25 91.5t-64.5 95t-87.5 96t-95.5 104t-87 110t-64.5 122t-25 133.5zM317 748q0 -36 15 -76t34 -73.5t65.5 -90t80 -94 t106.5 -117.5l3.5 -3.5t3.5 -4t4 -4.5q25 20 42 62.5t17 84.5q0 54 -30 114t-66.5 104t-104.5 121t-108 128q-62 -46 -62 -151z" />
<glyph unicode="&#xa8;" horiz-adv-x="1118" d="M236 1339q0 46 32 78.5t78 32.5t77.5 -32.5t31.5 -78.5t-31.5 -77t-77.5 -31t-78 31t-32 77zM629 1339q0 46 32 78.5t78 32.5t77.5 -32.5t31.5 -78.5t-31.5 -77t-77.5 -31t-78 31t-32 77z" />
<glyph unicode="&#xa9;" horiz-adv-x="1548" d="M82 684q0 187 92 345t250 249.5t346 91.5q189 0 347 -90.5t249.5 -247.5t91.5 -344t-92 -345.5t-250.5 -250.5t-345.5 -92q-143 0 -271 53.5t-219.5 145t-144.5 218t-53 267.5zM229 688q0 -148 72.5 -274.5t197 -200.5t271.5 -74q148 0 273 73t197.5 198.5t72.5 273.5 q0 147 -72.5 273t-197.5 200t-273 74q-147 0 -271.5 -72.5t-197 -197.5t-72.5 -273zM442 672q0 77 20 143t61.5 120t114 85t169.5 31q75 0 158 -17v-246h-93q-15 87 -22 136q-40 4 -64 4q-99 0 -143.5 -65.5t-44.5 -176.5q0 -118 49 -176.5t154 -58.5q82 0 164 28l8 -125 q-99 -30 -197 -30q-90 0 -155.5 26t-104 74t-56.5 109.5t-18 138.5z" />
<glyph unicode="&#xaa;" horiz-adv-x="831" d="M98 864q0 116 107 182.5t299 67.5v39q0 25 -5 44.5t-18.5 39t-41.5 30.5t-70 11q-57 0 -113 -18q-6 -56 -16 -109h-97v205q112 43 242 43q274 0 274 -238v-330q45 -7 129 -16v-98q-114 -19 -280 -15q0 48 10 113l-4 2q-19 -51 -81 -89t-132 -38q-101 0 -152 47t-51 127z M250 887q0 -34 24 -55t66 -21q53 0 92.5 34t55.5 73.5t16 72.5v19q-254 0 -254 -123z" />
<glyph unicode="&#xab;" horiz-adv-x="1042" d="M111 504l235 373l139 -78l-194 -293l192 -291l-143 -78zM506 504l254 368l135 -77l-209 -289l207 -285l-139 -80z" />
<glyph unicode="&#xac;" horiz-adv-x="1081" d="M76 463v151h903v-473h-162v322h-741z" />
<glyph unicode="&#xad;" horiz-adv-x="675" d="M96 440v148h484v-148h-484z" />
<glyph unicode="&#xae;" horiz-adv-x="1150" d="M123 1087q0 186 132.5 317.5t319.5 131.5q189 0 320 -130t131 -319q0 -184 -133 -316t-318 -132q-191 0 -321.5 129.5t-130.5 318.5zM248 1090q0 -136 96 -236t231 -100q136 0 232 97t96 232q0 137 -96 236.5t-232 99.5t-231.5 -96t-95.5 -233zM387 856v55q24 15 55 19 v319q-14 2 -55 17v57h51q28 0 79.5 1t70.5 1q168 0 168 -125q0 -50 -26 -84.5t-71 -46.5q22 -32 33 -57l37 -82q19 -2 49 -17v-57h-129l-82 191h-30v-117q27 -4 47 -17v-57h-197zM537 1120q1 0 15 -1t15 -1q45 0 66.5 20.5t21.5 49.5q0 60 -71 57h-47v-125z" />
<glyph unicode="&#xb0;" horiz-adv-x="770" d="M109 1247q0 80 41 141t103 91t132 30q131 0 199.5 -73t68.5 -185q0 -118 -83.5 -190t-196.5 -72q-121 0 -192.5 69.5t-71.5 188.5zM254 1249q0 -65 34.5 -102t90.5 -37q57 0 94 39t37 100q0 56 -31.5 99t-97.5 43q-55 0 -91 -40t-36 -102z" />
<glyph unicode="&#xb1;" horiz-adv-x="1175" d="M94 559v154h406v407h176v-407h405v-154h-405v-412h-176v412h-406zM104 29h967v-156h-967v156z" />
<glyph unicode="&#xb2;" horiz-adv-x="735" d="M63 553v131l216 188q95 85 132.5 141t37.5 109q0 64 -35 99.5t-105 35.5q-61 0 -102 -14q-11 -93 -25 -151h-102v260q117 43 262 43q143 0 216 -66t73 -178q0 -165 -172 -313l-160 -138q115 5 369 5v-152h-605z" />
<glyph unicode="&#xb3;" horiz-adv-x="686" d="M72 553l18 133q83 -22 166 -22q82 0 131 30t49 92q0 46 -27.5 73.5t-97.5 40.5t-190 -3v121q162 0 233.5 32t71.5 107q0 49 -34.5 81t-96.5 32q-44 0 -80 -8q-7 -80 -20 -134h-107v240q125 27 231 27q137 0 210 -58.5t73 -158.5q0 -144 -143 -195q73 -9 116 -62.5 t43 -123.5q0 -121 -101.5 -191.5t-266.5 -70.5q-75 0 -178 18z" />
<glyph unicode="&#xb4;" horiz-adv-x="796" d="M203 1280l291 227l92 -127l-310 -202z" />
<glyph unicode="&#xb6;" horiz-adv-x="1173" d="M135 948q0 190 127 312t330 122v-876q-114 0 -203 35t-143.5 96.5t-82.5 140t-28 170.5zM596 -53h149v1435h312v-143h-146v-1436h-315v144z" />
<glyph unicode="&#xb8;" horiz-adv-x="819" d="M311 -420q184 135 86 316h178q109 -234 -180 -392z" />
<glyph unicode="&#xb9;" horiz-adv-x="634" d="M45 1296l238 86h149v-698q68 -5 164 -27v-104h-526v104q80 21 184 27v537l-180 -72z" />
<glyph unicode="&#xba;" horiz-adv-x="858" d="M98 1036q0 163 94.5 264t241.5 101q50 0 94 -9.5t86 -34t72 -62t48 -97.5t18 -137q0 -167 -96 -269t-248 -102q-145 0 -227.5 83.5t-82.5 262.5zM256 1051q0 -45 8 -83.5t26 -72.5t51 -53t79 -19q77 0 124.5 57.5t47.5 168.5q0 96 -39.5 157.5t-126.5 61.5 q-69 0 -119.5 -55t-50.5 -162z" />
<glyph unicode="&#xbb;" horiz-adv-x="1042" d="M147 219l209 289l-206 285l139 79l250 -362l-256 -369zM559 213l193 295l-193 289l143 80l230 -367l-236 -373z" />
<glyph unicode="&#xbc;" horiz-adv-x="1957" d="M45 1296l238 86h149v-698q68 -5 164 -27v-104h-526v104q80 21 184 27v537l-180 -72zM354 -217l885 1730h184l-880 -1730h-189zM1141 334l350 495h221v-493h137v-129h-137v-96q70 -6 137 -25v-86h-456v86q71 19 151 25v96h-387zM1292 332q68 4 252 4v366z" />
<glyph unicode="&#xbd;" horiz-adv-x="1974" d="M45 1296l238 86h149v-698q68 -5 164 -27v-104h-526v104q80 21 184 27v537l-180 -72zM354 -217l885 1730h184l-880 -1730h-189zM1257 0v131l216 188q95 85 132 140.5t37 109.5q0 64 -34.5 100t-104.5 36q-59 0 -102 -15q-5 -58 -23 -151h-104v260q120 43 262 43 q143 0 217 -66.5t74 -177.5q0 -166 -174 -313l-158 -138q110 5 367 5v-152h-605z" />
<glyph unicode="&#xbe;" horiz-adv-x="1996" d="M72 553l18 133q83 -22 166 -22q82 0 131 30t49 92q0 46 -27.5 73.5t-97.5 40.5t-190 -3v121q162 0 233.5 32t71.5 107q0 49 -34.5 81t-96.5 32q-44 0 -80 -8q-7 -80 -20 -134h-107v240q125 27 231 27q137 0 210 -58.5t73 -158.5q0 -144 -143 -195q73 -9 116 -62.5 t43 -123.5q0 -121 -101.5 -191.5t-266.5 -70.5q-75 0 -178 18zM385 -217l885 1730h184l-881 -1730h-188zM1174 334l348 495h223v-493h137v-129h-137v-96q72 -6 137 -25v-86h-457v86q66 18 150 25v96h-385zM1325 332q66 4 252 4v366z" />
<glyph unicode="&#xbf;" horiz-adv-x="866" d="M121 -39q0 64 23 120t57.5 94.5t75.5 81t76.5 79.5t60 89t27 109.5t-22.5 141.5h180q29 -83 30 -154t-21.5 -122.5t-56.5 -96t-73.5 -83t-73.5 -74t-56.5 -78t-22.5 -86.5q0 -101 109.5 -171t281.5 -81l-23 -168q-260 15 -415.5 128.5t-155.5 270.5zM377 918 q0 51 36 85.5t89 34.5q52 0 87.5 -34.5t35.5 -85.5t-35.5 -86t-87.5 -35q-53 0 -89 35t-36 86z" />
<glyph unicode="&#xc0;" horiz-adv-x="1415" d="M12 0v111q94 20 125 22l459 1249h221l461 -1249q31 -2 125 -22v-111h-496v109q81 20 162 26l-80 221h-579l-80 -221q81 -6 162 -26v-109h-480zM428 1692l94 129l291 -226l-76 -106zM459 506h481l-178 481q-38 98 -62 207h-4q-28 -117 -63 -209z" />
<glyph unicode="&#xc1;" horiz-adv-x="1415" d="M12 0v111q94 20 125 22l459 1249h221l461 -1249q31 -2 125 -22v-111h-496v109q81 20 162 26l-80 221h-579l-80 -221q81 -6 162 -26v-109h-480zM459 506h481l-178 481q-38 98 -62 207h-4q-28 -117 -63 -209zM582 1593l290 228l93 -127l-310 -203z" />
<glyph unicode="&#xc2;" horiz-adv-x="1415" d="M12 0v111q94 20 125 22l459 1249h221l461 -1249q31 -2 125 -22v-111h-496v109q81 20 162 26l-80 221h-579l-80 -221q81 -6 162 -26v-109h-480zM416 1606l278 190l289 -186l-74 -111l-217 139l-209 -139zM459 506h481l-178 481q-38 98 -62 207h-4q-28 -117 -63 -209z" />
<glyph unicode="&#xc3;" horiz-adv-x="1415" d="M12 0v111q94 20 125 22l459 1249h221l461 -1249q31 -2 125 -22v-111h-496v109q81 20 162 26l-80 221h-579l-80 -221q81 -6 162 -26v-109h-480zM354 1683q84 84 197 84q46 0 88.5 -15t70 -33t64.5 -33t74 -15q78 0 141 66l43 -125q-34 -34 -86.5 -58t-107.5 -24 q-49 0 -92.5 15t-70 33t-64 33t-76.5 15q-73 0 -138 -65zM459 506h481l-178 481q-38 98 -62 207h-4q-28 -117 -63 -209z" />
<glyph unicode="&#xc4;" horiz-adv-x="1415" d="M12 0v111q94 20 125 22l459 1249h221l461 -1249q31 -2 125 -22v-111h-496v109q81 20 162 26l-80 221h-579l-80 -221q81 -6 162 -26v-109h-480zM397 1624q0 46 32.5 78.5t78.5 32.5q45 0 76.5 -32.5t31.5 -78.5t-31 -77t-77 -31t-78.5 31.5t-32.5 76.5zM459 506h481 l-178 481q-38 98 -62 207h-4q-28 -117 -63 -209zM791 1624q0 46 32 78.5t78 32.5t77.5 -32.5t31.5 -78.5t-31.5 -77t-77.5 -31t-78 31t-32 77z" />
<glyph unicode="&#xc5;" horiz-adv-x="1415" d="M12 0v111q94 20 125 22l459 1249h221l461 -1249q31 -2 125 -22v-111h-496v109q81 20 162 26l-80 221h-579l-80 -221q81 -6 162 -26v-109h-480zM459 506h481l-178 481q-38 98 -62 207h-4q-28 -117 -63 -209zM473 1577q0 95 68.5 160t163.5 65q99 0 166 -64.5t67 -160.5 q0 -92 -68 -157.5t-165 -65.5q-98 0 -165 63.5t-67 159.5zM592 1577q0 -47 33 -81t80 -34t80.5 34t33.5 81q0 48 -33.5 82.5t-80.5 34.5t-80 -34.5t-33 -82.5z" />
<glyph unicode="&#xc6;" horiz-adv-x="1701" d="M-63 0v111q88 20 122 22l611 1112q-91 6 -178 29v108h1054v-319h-131q-21 108 -26 172h-365v-455h295q8 66 29 142h114v-420h-114q-23 71 -29 141h-295v-491h379q8 67 29 176h133v-328h-891v111q82 20 164 26v219h-465l-121 -221q80 -6 154 -26v-109h-469zM446 506h392 v723h-9q-77 -168 -141 -285z" />
<glyph unicode="&#xc7;" horiz-adv-x="1210" d="M94 655q0 163 40.5 297t122 234t214 155.5t305.5 55.5q153 0 324 -41v-336h-133q-15 72 -27 184q-100 25 -205 25q-109 0 -193.5 -41.5t-136.5 -115.5t-78 -171.5t-26 -214.5q0 -534 479 -534q81 0 168.5 19.5t153.5 51.5l12 -172q-187 -69 -381 -69q-314 0 -476.5 175.5 t-162.5 497.5zM522 -420q184 135 86 316h178q109 -234 -180 -392z" />
<glyph unicode="&#xc8;" horiz-adv-x="1087" d="M57 0v109q82 22 179 28v1108q-92 6 -179 29v108h893v-319h-131q-21 108 -26 172h-371v-455h295q15 95 28 142h115v-420h-115q-18 66 -28 141h-295v-491h373q9 79 28 176h131v-328h-897zM281 1692l94 129l291 -226l-76 -106z" />
<glyph unicode="&#xc9;" horiz-adv-x="1087" d="M57 0v109q82 22 179 28v1108q-92 6 -179 29v108h893v-319h-131q-21 108 -26 172h-371v-455h295q15 95 28 142h115v-420h-115q-18 66 -28 141h-295v-491h373q9 79 28 176h131v-328h-897zM451 1593l290 228l93 -127l-310 -203z" />
<glyph unicode="&#xca;" horiz-adv-x="1087" d="M57 0v109q82 22 179 28v1108q-92 6 -179 29v108h893v-319h-131q-21 108 -26 172h-371v-455h295q15 95 28 142h115v-420h-115q-18 66 -28 141h-295v-491h373q9 79 28 176h131v-328h-897zM264 1606l279 190l288 -186l-73 -111l-217 139l-209 -139z" />
<glyph unicode="&#xcb;" horiz-adv-x="1087" d="M57 0v109q82 22 179 28v1108q-92 6 -179 29v108h893v-319h-131q-21 108 -26 172h-371v-455h295q15 95 28 142h115v-420h-115q-18 66 -28 141h-295v-491h373q9 79 28 176h131v-328h-897zM238 1624q0 46 32 78.5t78 32.5t77.5 -32.5t31.5 -78.5t-31.5 -77t-77.5 -31t-78 31 t-32 77zM631 1624q0 46 32 78.5t78 32.5t77.5 -32.5t31.5 -78.5t-31.5 -77t-77.5 -31t-78 31t-32 77z" />
<glyph unicode="&#xcc;" horiz-adv-x="657" d="M51 1692l94 129l291 -228l-76 -104zM53 0v109q82 22 178 28v1108q-91 6 -178 29v108h545v-108q-87 -23 -178 -29v-1108q96 -6 178 -28v-109h-545z" />
<glyph unicode="&#xcd;" horiz-adv-x="657" d="M53 0v109q82 22 178 28v1108q-91 6 -178 29v108h545v-108q-87 -23 -178 -29v-1108q96 -6 178 -28v-109h-545zM199 1593l290 228l93 -129l-310 -203z" />
<glyph unicode="&#xce;" horiz-adv-x="657" d="M43 1606l281 190l288 -186l-73 -111l-217 139l-209 -139zM53 0v109q82 22 178 28v1108q-91 6 -178 29v108h545v-108q-87 -23 -178 -29v-1108q96 -6 178 -28v-109h-545z" />
<glyph unicode="&#xcf;" horiz-adv-x="657" d="M10 1624q0 46 32.5 78.5t78.5 32.5t78 -32.5t32 -78.5t-32 -78.5t-78 -32.5t-78.5 32.5t-32.5 78.5zM53 0v109q82 22 178 28v1108q-91 6 -178 29v108h545v-108q-87 -23 -178 -29v-1108q96 -6 178 -28v-109h-545zM403 1624q0 46 32.5 78.5t78.5 32.5t78.5 -32.5 t32.5 -78.5t-32.5 -78.5t-78.5 -32.5t-78.5 32.5t-32.5 78.5z" />
<glyph unicode="&#xd0;" horiz-adv-x="1462" d="M55 639v143h193v463q-91 6 -178 29v108h176q49 0 192 3.5t224 3.5q341 0 523.5 -167t182.5 -515q0 -174 -56.5 -310.5t-159 -224.5t-243.5 -134t-313 -46q-73 0 -186.5 4t-161.5 4h-178v109q82 22 178 28v502h-193zM436 164q76 -12 185 -12q254 0 402 135.5t148 406.5 q0 541 -526 541q-50 0 -209 -6v-447h287v-143h-287v-475z" />
<glyph unicode="&#xd1;" horiz-adv-x="1540" d="M57 0v109q92 24 179 30v1106q-92 6 -179 29v108h426l529 -847q57 -92 162 -287q-15 247 -15 995q-59 4 -160 29v110h484v-110q-74 -21 -142 -29v-1243h-245l-535 856q-82 135 -155 287q12 -204 12 -1004q71 -5 164 -28v-111h-525zM449 1683q84 84 196 84q46 0 88.5 -15 t70 -33t64.5 -33t74 -15q78 0 141 66l43 -125q-34 -34 -86.5 -58t-107.5 -24q-49 0 -92.5 15t-70 33t-64 33t-76.5 15q-72 0 -137 -65z" />
<glyph unicode="&#xd2;" horiz-adv-x="1443" d="M86 676q0 169 51.5 307.5t141 229.5t208.5 140.5t254 49.5q285 0 451 -180.5t166 -515.5q0 -169 -52 -307.5t-141.5 -229.5t-208.5 -140.5t-254 -49.5q-304 0 -460 186t-156 510zM287 702q0 -256 109.5 -405.5t322.5 -149.5q86 0 163.5 34.5t139.5 99.5t98.5 169.5 t36.5 233.5q0 265 -114 409t-322 144q-87 0 -164.5 -35.5t-138 -101t-96 -168.5t-35.5 -230zM477 1692l94 129l291 -226l-76 -106z" />
<glyph unicode="&#xd3;" horiz-adv-x="1443" d="M86 676q0 169 51.5 307.5t141 229.5t208.5 140.5t254 49.5q285 0 451 -180.5t166 -515.5q0 -169 -52 -307.5t-141.5 -229.5t-208.5 -140.5t-254 -49.5q-304 0 -460 186t-156 510zM287 702q0 -256 109.5 -405.5t322.5 -149.5q86 0 163.5 34.5t139.5 99.5t98.5 169.5 t36.5 233.5q0 265 -114 409t-322 144q-87 0 -164.5 -35.5t-138 -101t-96 -168.5t-35.5 -230zM612 1593l291 228l92 -127l-309 -203z" />
<glyph unicode="&#xd4;" horiz-adv-x="1443" d="M86 676q0 169 51.5 307.5t141 229.5t208.5 140.5t254 49.5q285 0 451 -180.5t166 -515.5q0 -169 -52 -307.5t-141.5 -229.5t-208.5 -140.5t-254 -49.5q-304 0 -460 186t-156 510zM287 702q0 -256 109.5 -405.5t322.5 -149.5q86 0 163.5 34.5t139.5 99.5t98.5 169.5 t36.5 233.5q0 265 -114 409t-322 144q-87 0 -164.5 -35.5t-138 -101t-96 -168.5t-35.5 -230zM453 1606l278 190l289 -186l-74 -111l-217 139l-209 -139z" />
<glyph unicode="&#xd5;" horiz-adv-x="1443" d="M86 676q0 169 51.5 307.5t141 229.5t208.5 140.5t254 49.5q285 0 451 -180.5t166 -515.5q0 -169 -52 -307.5t-141.5 -229.5t-208.5 -140.5t-254 -49.5q-304 0 -460 186t-156 510zM287 702q0 -256 109.5 -405.5t322.5 -149.5q86 0 163.5 34.5t139.5 99.5t98.5 169.5 t36.5 233.5q0 265 -114 409t-322 144q-87 0 -164.5 -35.5t-138 -101t-96 -168.5t-35.5 -230zM375 1686q83 83 196 83q46 0 88.5 -15t70 -33t64.5 -33t74 -15q79 0 142 66l43 -125q-34 -34 -87 -58t-108 -24q-49 0 -92.5 15t-70 33t-64 33t-76.5 15q-72 0 -137 -65z" />
<glyph unicode="&#xd6;" horiz-adv-x="1443" d="M86 676q0 169 51.5 307.5t141 229.5t208.5 140.5t254 49.5q285 0 451 -180.5t166 -515.5q0 -169 -52 -307.5t-141.5 -229.5t-208.5 -140.5t-254 -49.5q-304 0 -460 186t-156 510zM287 702q0 -256 109.5 -405.5t322.5 -149.5q86 0 163.5 34.5t139.5 99.5t98.5 169.5 t36.5 233.5q0 265 -114 409t-322 144q-87 0 -164.5 -35.5t-138 -101t-96 -168.5t-35.5 -230zM418 1624q0 46 32 78.5t78 32.5t77.5 -32.5t31.5 -78.5t-31.5 -77t-77.5 -31t-78 31t-32 77zM811 1624q0 46 32.5 78.5t78.5 32.5q45 0 76.5 -32.5t31.5 -78.5t-31 -77t-77 -31 t-78.5 31.5t-32.5 76.5z" />
<glyph unicode="&#xd7;" horiz-adv-x="1159" d="M129 850l113 113l342 -345l344 343l102 -101l-344 -342l344 -344l-112 -115l-345 344l-340 -342l-102 103l342 342z" />
<glyph unicode="&#xd8;" horiz-adv-x="1443" d="M82 680q0 169 50.5 307t139 228t207 139t254.5 49q71 0 148 -17l71 199l142 -47l-72 -192q158 -72 244 -236t86 -412q0 -168 -50.5 -304.5t-139.5 -226.5t-209 -138.5t-259 -48.5q-88 0 -159 18l-78 -209l-140 45l76 209q-157 79 -234 244.5t-77 392.5zM276 696 q0 -347 181 -471l366 998q-68 13 -139 10q-83 -5 -156 -42t-129.5 -103t-89.5 -167t-33 -225zM590 160q64 -17 135 -17q92 3 170.5 39t137 102t91.5 167.5t33 228.5q0 172 -50.5 298.5t-148.5 186.5z" />
<glyph unicode="&#xd9;" horiz-adv-x="1464" d="M57 1272v110h492v-110q-88 -21 -164 -27v-766q0 -61 9 -109.5t32 -93.5t61 -75t99.5 -48t142.5 -18q184 0 269 87t85 292v731q-70 5 -163 27v110h489v-110q-67 -18 -141 -27v-719q0 -271 -139.5 -408.5t-411.5 -137.5q-125 0 -219 27.5t-150 71.5t-90.5 109.5t-46.5 131 t-12 145.5v780q-81 10 -142 27zM455 1692l94 129l291 -226l-76 -106z" />
<glyph unicode="&#xda;" horiz-adv-x="1464" d="M57 1272v110h492v-110q-88 -21 -164 -27v-766q0 -61 9 -109.5t32 -93.5t61 -75t99.5 -48t142.5 -18q184 0 269 87t85 292v731q-70 5 -163 27v110h489v-110q-67 -18 -141 -27v-719q0 -271 -139.5 -408.5t-411.5 -137.5q-125 0 -219 27.5t-150 71.5t-90.5 109.5t-46.5 131 t-12 145.5v780q-81 10 -142 27zM631 1593l291 228l92 -127l-309 -203z" />
<glyph unicode="&#xdb;" horiz-adv-x="1464" d="M57 1272v110h492v-110q-88 -21 -164 -27v-766q0 -61 9 -109.5t32 -93.5t61 -75t99.5 -48t142.5 -18q184 0 269 87t85 292v731q-70 5 -163 27v110h489v-110q-67 -18 -141 -27v-719q0 -271 -139.5 -408.5t-411.5 -137.5q-125 0 -219 27.5t-150 71.5t-90.5 109.5t-46.5 131 t-12 145.5v780q-81 10 -142 27zM449 1606l278 190l289 -186l-74 -111l-217 139l-209 -139z" />
<glyph unicode="&#xdc;" horiz-adv-x="1464" d="M57 1272v110h492v-110q-88 -21 -164 -27v-766q0 -61 9 -109.5t32 -93.5t61 -75t99.5 -48t142.5 -18q184 0 269 87t85 292v731q-70 5 -163 27v110h489v-110q-67 -18 -141 -27v-719q0 -271 -139.5 -408.5t-411.5 -137.5q-125 0 -219 27.5t-150 71.5t-90.5 109.5t-46.5 131 t-12 145.5v780q-81 10 -142 27zM426 1624q0 46 32.5 78.5t78.5 32.5q45 0 76.5 -32.5t31.5 -78.5t-31 -77t-77 -31t-78.5 31.5t-32.5 76.5zM819 1624q0 46 32.5 78.5t78.5 32.5q45 0 76.5 -32.5t31.5 -78.5t-31 -77t-77 -31t-78.5 31.5t-32.5 76.5z" />
<glyph unicode="&#xdd;" horiz-adv-x="1218" d="M12 1272v110h486v-110q-74 -19 -152 -25l166 -362q66 -141 98 -221h4q14 35 31.5 73.5t41.5 89t34 72.5l164 348q-81 6 -152 25v110h471v-110q-66 -20 -123 -23l-383 -760v-352q97 -6 179 -28v-109h-543v109q82 22 178 28v350l-375 762q-55 3 -125 23zM518 1593l293 226 l92 -127l-309 -203z" />
<glyph unicode="&#xde;" horiz-adv-x="1183" d="M57 0v109q82 22 179 28v1108q-92 6 -179 29v108h543v-108q-87 -23 -178 -29v-119q142 9 203 9q231 0 363 -97t132 -288q0 -137 -75 -240.5t-198 -155t-274 -51.5q-76 0 -151 10v-176q96 -6 178 -28v-109h-543zM422 465q87 -12 143 -10q164 0 259.5 77t95.5 207 q0 114 -84 181t-261 67q-79 0 -153 -14v-508z" />
<glyph unicode="&#xdf;" horiz-adv-x="1335" d="M55 895v109q95 11 183 14q2 233 123.5 362t355.5 129q184 0 286.5 -79.5t102.5 -204.5q0 -74 -28 -127.5t-67.5 -84t-79 -56.5t-67.5 -62.5t-28 -85.5q0 -42 24 -75.5t63 -58t85.5 -48t93 -51t85.5 -61.5t63 -85.5t24 -116.5q0 -141 -103 -234t-294 -93q-98 0 -211 18 v289h116q17 -92 23 -156q38 -10 86 -10q101 0 147.5 46.5t46.5 117.5q0 44 -24 78t-63 58t-85.5 46t-93 48.5t-85.5 59.5t-63 85t-24 118q0 47 15 85.5t38.5 65.5t52 51t57 46t52 45t38.5 55t15 70q0 74 -59 117t-154 43q-137 0 -208.5 -87t-71.5 -274v-864q96 -8 147 -28 v-109h-510v109q82 22 179 28v737q-90 15 -183 21z" />
<glyph unicode="&#xe0;" horiz-adv-x="1105" d="M94 233q0 168 162.5 265t450.5 98v78q0 112 -49 165.5t-169 53.5q-99 0 -188 -25q-3 -42 -25 -166h-112v281q151 55 348 55q108 0 183.5 -24t117.5 -70.5t60 -106t18 -139.5v-555q83 -14 172 -20v-109q-184 -23 -346 -14q0 146 10 203h-4q-38 -97 -131 -159t-215 -62 q-129 0 -206 66t-77 185zM252 1378l94 129l291 -225l-76 -106zM274 266q0 -64 42.5 -102.5t113.5 -38.5q80 0 144.5 48t98.5 121.5t34 154.5v18q-122 0 -209.5 -17t-134.5 -46.5t-68 -63.5t-21 -74z" />
<glyph unicode="&#xe1;" horiz-adv-x="1105" d="M94 233q0 168 162.5 265t450.5 98v78q0 112 -49 165.5t-169 53.5q-99 0 -188 -25q-3 -42 -25 -166h-112v281q151 55 348 55q108 0 183.5 -24t117.5 -70.5t60 -106t18 -139.5v-555q83 -14 172 -20v-109q-184 -23 -346 -14q0 146 10 203h-4q-38 -97 -131 -159t-215 -62 q-129 0 -206 66t-77 185zM274 266q0 -64 42.5 -102.5t113.5 -38.5q80 0 144.5 48t98.5 121.5t34 154.5v18q-122 0 -209.5 -17t-134.5 -46.5t-68 -63.5t-21 -74zM397 1280l291 227l92 -127l-309 -202z" />
<glyph unicode="&#xe2;" horiz-adv-x="1105" d="M94 233q0 168 162.5 265t450.5 98v78q0 112 -49 165.5t-169 53.5q-99 0 -188 -25q-3 -42 -25 -166h-112v281q151 55 348 55q108 0 183.5 -24t117.5 -70.5t60 -106t18 -139.5v-555q83 -14 172 -20v-109q-184 -23 -346 -14q0 146 10 203h-4q-38 -97 -131 -159t-215 -62 q-129 0 -206 66t-77 185zM242 1292l278 191l289 -187l-74 -110l-217 139l-209 -139zM274 266q0 -64 42.5 -102.5t113.5 -38.5q80 0 144.5 48t98.5 121.5t34 154.5v18q-122 0 -209.5 -17t-134.5 -46.5t-68 -63.5t-21 -74z" />
<glyph unicode="&#xe3;" horiz-adv-x="1105" d="M94 233q0 168 162.5 265t450.5 98v78q0 112 -49 165.5t-169 53.5q-99 0 -188 -25q-3 -42 -25 -166h-112v281q151 55 348 55q108 0 183.5 -24t117.5 -70.5t60 -106t18 -139.5v-555q83 -14 172 -20v-109q-184 -23 -346 -14q0 146 10 203h-4q-38 -97 -131 -159t-215 -62 q-129 0 -206 66t-77 185zM180 1370q84 84 197 84q46 0 88.5 -15t70 -33t64.5 -33t74 -15q79 0 141 65l43 -125q-34 -34 -86.5 -57.5t-107.5 -23.5q-49 0 -93 15t-70.5 33t-64 33t-76.5 15q-71 0 -137 -66zM274 266q0 -64 42.5 -102.5t113.5 -38.5q80 0 144.5 48t98.5 121.5 t34 154.5v18q-122 0 -209.5 -17t-134.5 -46.5t-68 -63.5t-21 -74z" />
<glyph unicode="&#xe4;" horiz-adv-x="1105" d="M94 233q0 168 162.5 265t450.5 98v78q0 112 -49 165.5t-169 53.5q-99 0 -188 -25q-3 -42 -25 -166h-112v281q151 55 348 55q108 0 183.5 -24t117.5 -70.5t60 -106t18 -139.5v-555q83 -14 172 -20v-109q-184 -23 -346 -14q0 146 10 203h-4q-38 -97 -131 -159t-215 -62 q-129 0 -206 66t-77 185zM217 1339q0 46 32.5 78.5t78.5 32.5q45 0 76.5 -32.5t31.5 -78.5t-31 -77t-77 -31t-78.5 31.5t-32.5 76.5zM274 266q0 -64 42.5 -102.5t113.5 -38.5q80 0 144.5 48t98.5 121.5t34 154.5v18q-122 0 -209.5 -17t-134.5 -46.5t-68 -63.5t-21 -74z M610 1339q0 46 32.5 78.5t78.5 32.5q45 0 76.5 -32.5t31.5 -78.5t-31 -77t-77 -31t-78.5 31.5t-32.5 76.5z" />
<glyph unicode="&#xe5;" horiz-adv-x="1105" d="M94 233q0 168 162.5 265t450.5 98v78q0 112 -49 165.5t-169 53.5q-99 0 -188 -25q-3 -42 -25 -166h-112v281q151 55 348 55q108 0 183.5 -24t117.5 -70.5t60 -106t18 -139.5v-555q83 -14 172 -20v-109q-184 -23 -346 -14q0 146 10 203h-4q-38 -97 -131 -159t-215 -62 q-129 0 -206 66t-77 185zM274 266q0 -64 42.5 -102.5t113.5 -38.5q80 0 144.5 48t98.5 121.5t34 154.5v18q-122 0 -209.5 -17t-134.5 -46.5t-68 -63.5t-21 -74zM291 1356q0 96 68 160.5t163 64.5q99 0 166.5 -64.5t67.5 -160.5q0 -92 -68.5 -157.5t-165.5 -65.5 q-98 0 -164.5 63.5t-66.5 159.5zM410 1356q0 -48 32.5 -81.5t79.5 -33.5t81 34t34 81t-34 82t-81 35t-79.5 -34.5t-32.5 -82.5z" />
<glyph unicode="&#xe6;" horiz-adv-x="1652" d="M94 233q0 168 162.5 265t450.5 98v78q0 109 -50.5 164t-167.5 55q-99 0 -188 -25q-3 -42 -25 -166h-112v281q151 55 350 55q234 0 315 -157h2q46 69 131 112t191 43q104 0 183.5 -33.5t127 -93.5t71.5 -135.5t24 -165.5q0 -27 -7 -88h-665q-6 -200 74.5 -294.5 t244.5 -94.5t299 64l17 -150q-151 -63 -344 -63q-163 0 -268.5 64t-147.5 169l-2 -2q-50 -97 -149 -164t-236 -67q-128 0 -204.5 66t-76.5 185zM274 266q0 -63 43 -102t113 -39q80 0 144.5 48t98.5 121.5t34 154.5v18q-122 0 -209.5 -17t-134.5 -46.5t-68 -63.5t-21 -74z M893 651h477q3 113 -57.5 181.5t-167.5 68.5q-99 0 -167 -68t-85 -182z" />
<glyph unicode="&#xe7;" horiz-adv-x="913" d="M84 475q0 167 55 290.5t171.5 195t285.5 71.5q134 0 244 -35v-297h-115q-17 82 -27 166q-55 19 -127 19q-140 0 -217.5 -102t-77.5 -277q0 -82 15 -145t48.5 -113.5t95.5 -77.5t149 -27q138 0 250 56l12 -160q-145 -53 -301 -53q-79 0 -145 14.5t-125.5 50t-101 90 t-65.5 139.5t-24 195zM340 -420q184 135 86 316h178q109 -234 -180 -392z" />
<glyph unicode="&#xe8;" horiz-adv-x="1040" d="M84 504q0 153 52.5 273t157 189.5t245.5 69.5q104 0 184 -33.5t127.5 -93.5t71.5 -135.5t24 -165.5q0 -36 -6 -88h-666q-6 -201 75 -295t247 -94q162 0 297 64l16 -150q-151 -63 -344 -63q-481 0 -481 522zM274 1378l95 129l290 -225l-75 -106zM283 651h475 q3 113 -59 181.5t-169 68.5q-99 0 -165.5 -68t-81.5 -182z" />
<glyph unicode="&#xe9;" horiz-adv-x="1040" d="M84 504q0 153 52.5 273t157 189.5t245.5 69.5q104 0 184 -33.5t127.5 -93.5t71.5 -135.5t24 -165.5q0 -36 -6 -88h-666q-6 -201 75 -295t247 -94q162 0 297 64l16 -150q-151 -63 -344 -63q-481 0 -481 522zM283 651h475q3 113 -59 181.5t-169 68.5q-99 0 -165.5 -68 t-81.5 -182zM408 1280l290 227l93 -127l-310 -202z" />
<glyph unicode="&#xea;" horiz-adv-x="1040" d="M84 504q0 153 52.5 273t157 189.5t245.5 69.5q104 0 184 -33.5t127.5 -93.5t71.5 -135.5t24 -165.5q0 -36 -6 -88h-666q-6 -201 75 -295t247 -94q162 0 297 64l16 -150q-151 -63 -344 -63q-481 0 -481 522zM252 1292l278 191l289 -187l-74 -110l-217 139l-209 -139z M283 651h475q3 113 -59 181.5t-169 68.5q-99 0 -165.5 -68t-81.5 -182z" />
<glyph unicode="&#xeb;" horiz-adv-x="1040" d="M84 504q0 153 52.5 273t157 189.5t245.5 69.5q104 0 184 -33.5t127.5 -93.5t71.5 -135.5t24 -165.5q0 -36 -6 -88h-666q-6 -201 75 -295t247 -94q162 0 297 64l16 -150q-151 -63 -344 -63q-481 0 -481 522zM231 1339q0 46 32.5 78.5t78.5 32.5t77.5 -32.5t31.5 -78.5 t-31.5 -77t-77.5 -31t-78.5 31.5t-32.5 76.5zM283 651h475q3 113 -59 181.5t-169 68.5q-99 0 -165.5 -68t-81.5 -182zM625 1339q0 46 32 78.5t78 32.5t77.5 -32.5t31.5 -78.5t-31.5 -77t-77.5 -31t-78 31t-32 77z" />
<glyph unicode="&#xec;" horiz-adv-x="636" d="M33 1378l94 129l291 -225l-76 -106zM53 0v109q82 22 178 28v737q-94 15 -178 21v109q196 23 363 14v-881q93 -6 172 -28v-109h-535z" />
<glyph unicode="&#xed;" horiz-adv-x="636" d="M53 0v109q82 22 178 28v737q-94 15 -178 21v109q196 23 363 14v-881q93 -6 172 -28v-109h-535zM182 1280l291 227l92 -127l-309 -202z" />
<glyph unicode="&#xee;" horiz-adv-x="636" d="M37 1292l280 191l287 -187l-74 -110l-217 139l-209 -139zM53 0v109q82 22 178 28v737q-94 15 -178 21v109q196 23 363 14v-881q93 -6 172 -28v-109h-535z" />
<glyph unicode="&#xef;" horiz-adv-x="636" d="M6 1339q0 46 32.5 78.5t78.5 32.5q45 0 76.5 -32.5t31.5 -78.5t-31 -77t-77 -31t-78.5 31.5t-32.5 76.5zM53 0v109q82 22 178 28v737q-94 15 -178 21v109q196 23 363 14v-881q93 -6 172 -28v-109h-535zM399 1339q0 46 32.5 78.5t78.5 32.5q44 0 76 -32.5t32 -78.5 q0 -45 -31.5 -76.5t-76.5 -31.5q-46 0 -78.5 31.5t-32.5 76.5z" />
<glyph unicode="&#xf0;" horiz-adv-x="1161" d="M96 465q0 128 37.5 231t102.5 169t151 101t184 35q178 0 260 -106q-34 119 -72.5 198t-96.5 140l-205 -131l-101 94l183 117q-92 59 -222 59q-48 0 -110 -10v145q69 6 102 6q208 0 363 -94l180 117l100 -94l-164 -109q242 -234 242 -733q0 -163 -39 -285.5t-108 -193.5 t-153.5 -105t-184.5 -34q-213 0 -331 129t-118 354zM285 471q0 -153 76 -243.5t196 -88.5q285 3 285 412q0 144 -63.5 223.5t-198.5 79.5q-131 0 -213 -94t-82 -289z" />
<glyph unicode="&#xf1;" horiz-adv-x="1280" d="M59 0v109q82 22 179 28v737q-93 15 -179 21v109q193 23 357 14q0 -124 -15 -213l2 -2q46 109 139 172t222 63q84 0 144.5 -25t95 -70.5t50 -102t15.5 -127.5v-576q93 -6 172 -28v-109h-356v657q0 114 -38.5 171t-133.5 57q-127 0 -209 -113t-82 -283v-352q82 -6 164 -26 v-111h-527zM299 1370q84 84 197 84q46 0 88.5 -15t70 -33t64.5 -33t74 -15q79 0 141 65l43 -125q-33 -33 -86.5 -57t-108.5 -24q-49 0 -92.5 15t-70 33t-64 33t-76.5 15q-71 0 -137 -66z" />
<glyph unicode="&#xf2;" d="M80 500q0 150 59 271t172.5 193t263.5 72q100 0 181.5 -28.5t145 -88t98 -159.5t34.5 -234q0 -234 -137.5 -389t-359.5 -155q-215 0 -336 129t-121 389zM272 518q0 -185 74 -283t213 -98q122 0 202.5 97t80.5 282q0 176 -72 271.5t-211 95.5q-120 0 -203.5 -93.5 t-83.5 -271.5zM326 1378l94 129l291 -225l-76 -106z" />
<glyph unicode="&#xf3;" d="M80 500q0 150 59 271t172.5 193t263.5 72q100 0 181.5 -28.5t145 -88t98 -159.5t34.5 -234q0 -234 -137.5 -389t-359.5 -155q-215 0 -336 129t-121 389zM272 518q0 -185 74 -283t213 -98q122 0 202.5 97t80.5 282q0 176 -72 271.5t-211 95.5q-120 0 -203.5 -93.5 t-83.5 -271.5zM436 1280l291 227l92 -127l-309 -202z" />
<glyph unicode="&#xf4;" d="M80 500q0 150 59 271t172.5 193t263.5 72q100 0 181.5 -28.5t145 -88t98 -159.5t34.5 -234q0 -234 -137.5 -389t-359.5 -155q-215 0 -336 129t-121 389zM272 518q0 -185 74 -283t213 -98q122 0 202.5 97t80.5 282q0 176 -72 271.5t-211 95.5q-120 0 -203.5 -93.5 t-83.5 -271.5zM279 1292l278 191l289 -187l-74 -110l-217 139l-209 -139z" />
<glyph unicode="&#xf5;" d="M80 500q0 150 59 271t172.5 193t263.5 72q100 0 181.5 -28.5t145 -88t98 -159.5t34.5 -234q0 -234 -137.5 -389t-359.5 -155q-215 0 -336 129t-121 389zM223 1370q84 84 197 84q46 0 88.5 -15t70 -33t64.5 -33t74 -15q79 0 141 65l43 -125q-34 -34 -86.5 -57.5 t-107.5 -23.5q-49 0 -93 15t-70.5 33t-64 33t-76.5 15q-71 0 -137 -66zM272 518q0 -185 74 -283t213 -98q122 0 202.5 97t80.5 282q0 176 -72 271.5t-211 95.5q-120 0 -203.5 -93.5t-83.5 -271.5z" />
<glyph unicode="&#xf6;" d="M80 500q0 150 59 271t172.5 193t263.5 72q100 0 181.5 -28.5t145 -88t98 -159.5t34.5 -234q0 -234 -137.5 -389t-359.5 -155q-215 0 -336 129t-121 389zM252 1339q0 46 32 78.5t78 32.5t77.5 -32.5t31.5 -78.5t-31.5 -77t-77.5 -31t-78 31t-32 77zM272 518 q0 -185 74 -283t213 -98q122 0 202.5 97t80.5 282q0 176 -72 271.5t-211 95.5q-120 0 -203.5 -93.5t-83.5 -271.5zM645 1339q0 46 32.5 78.5t78.5 32.5q45 0 76.5 -32.5t31.5 -78.5t-31 -77t-77 -31t-78.5 31.5t-32.5 76.5z" />
<glyph unicode="&#xf7;" horiz-adv-x="1202" d="M94 451v155h1014v-155h-1014zM477 115q0 51 36.5 87t88.5 36q51 0 87 -36t36 -87q0 -52 -36 -88.5t-87 -36.5q-52 0 -88.5 36t-36.5 89zM477 940q0 51 36.5 87t88.5 36q51 0 87 -36t36 -87q0 -52 -36 -88.5t-87 -36.5q-52 0 -88.5 36.5t-36.5 88.5z" />
<glyph unicode="&#xf8;" d="M74 502q0 152 58.5 273t171 192t261.5 71q37 0 99 -8l73 191l121 -39l-74 -189q238 -116 238 -467q0 -154 -60 -278t-173 -196t-259 -72q-70 0 -129 18l-79 -211l-121 39l84 213q-106 61 -158.5 182t-52.5 281zM250 514q0 -212 102 -303l256 672q-38 6 -78 6 q-53 -2 -101 -24t-89 -65t-65.5 -116.5t-24.5 -169.5zM459 147q49 -19 108 -16q119 5 199 103t80 284q0 231 -125 316z" />
<glyph unicode="&#xf9;" horiz-adv-x="1259" d="M43 895v109q181 23 356 14v-658q0 -114 38.5 -170.5t133.5 -56.5q126 0 208.5 113t82.5 282v346q-73 12 -164 19v111q184 23 346 14v-875q83 -14 175 -20v-109q-187 -23 -351 -14q0 121 15 213l-4 2q-44 -108 -137.5 -171.5t-221.5 -63.5q-305 0 -305 325v569 q-94 15 -172 21zM373 1378l94 129l291 -225l-76 -106z" />
<glyph unicode="&#xfa;" horiz-adv-x="1259" d="M43 895v109q181 23 356 14v-658q0 -114 38.5 -170.5t133.5 -56.5q126 0 208.5 113t82.5 282v346q-73 12 -164 19v111q184 23 346 14v-875q83 -14 175 -20v-109q-187 -23 -351 -14q0 121 15 213l-4 2q-44 -108 -137.5 -171.5t-221.5 -63.5q-305 0 -305 325v569 q-94 15 -172 21zM510 1280l291 227l92 -127l-309 -202z" />
<glyph unicode="&#xfb;" horiz-adv-x="1259" d="M43 895v109q181 23 356 14v-658q0 -114 38.5 -170.5t133.5 -56.5q126 0 208.5 113t82.5 282v346q-73 12 -164 19v111q184 23 346 14v-875q83 -14 175 -20v-109q-187 -23 -351 -14q0 121 15 213l-4 2q-44 -108 -137.5 -171.5t-221.5 -63.5q-305 0 -305 325v569 q-94 15 -172 21zM330 1292l278 191l289 -187l-74 -110l-217 139l-209 -139z" />
<glyph unicode="&#xfc;" horiz-adv-x="1259" d="M43 895v109q181 23 356 14v-658q0 -114 38.5 -170.5t133.5 -56.5q126 0 208.5 113t82.5 282v346q-73 12 -164 19v111q184 23 346 14v-875q83 -14 175 -20v-109q-187 -23 -351 -14q0 121 15 213l-4 2q-44 -108 -137.5 -171.5t-221.5 -63.5q-305 0 -305 325v569 q-94 15 -172 21zM309 1339q0 46 32.5 78.5t78.5 32.5q45 0 76.5 -32.5t31.5 -78.5t-31 -77t-77 -31t-78.5 31.5t-32.5 76.5zM702 1339q0 46 32.5 78.5t78.5 32.5t77.5 -32.5t31.5 -78.5t-31.5 -77t-77.5 -31t-78.5 31.5t-32.5 76.5z" />
<glyph unicode="&#xfd;" horiz-adv-x="1148" d="M12 907v111h467v-111q-62 -19 -133 -22l154 -443q38 -109 78 -254h4q16 70 94 304l137 393q-71 3 -133 22v111h455v-111q-75 -19 -129 -24l-361 -992q-58 -160 -115.5 -247t-134.5 -126.5t-192 -39.5q-75 0 -140 12l15 166q77 -23 135 -23q85 0 139.5 53.5t108.5 198.5 l43 115h-45l-316 883q-57 5 -131 24zM477 1280l291 227l92 -127l-307 -202z" />
<glyph unicode="&#xfe;" horiz-adv-x="1181" d="M39 -395q89 20 178 26v1721q-83 14 -178 20v109q192 23 360 14v-446q0 -162 -12 -228l4 -2q42 100 129 158.5t203 58.5q181 0 278 -123.5t97 -355.5q0 -268 -138.5 -418.5t-386.5 -150.5q-101 0 -174 12v-369q90 -6 179 -26v-111h-539v111zM399 156q86 -25 183 -25 q152 0 237.5 99.5t85.5 310.5q0 344 -225 344q-66 0 -121 -36t-89 -94t-52.5 -126.5t-18.5 -136.5v-336z" />
<glyph unicode="&#xff;" horiz-adv-x="1148" d="M12 907v111h467v-111q-62 -19 -133 -22l154 -443q38 -109 78 -254h4q16 70 94 304l137 393q-71 3 -133 22v111h455v-111q-75 -19 -129 -24l-361 -992q-58 -160 -115.5 -247t-134.5 -126.5t-192 -39.5q-75 0 -140 12l15 166q77 -23 135 -23q85 0 139.5 53.5t108.5 198.5 l43 115h-45l-316 883q-57 5 -131 24zM254 1339q0 46 32.5 78.5t78.5 32.5q45 0 76.5 -32.5t31.5 -78.5t-31 -77t-77 -31t-78.5 31.5t-32.5 76.5zM647 1339q0 46 32.5 78.5t78.5 32.5q45 0 76.5 -32.5t31.5 -78.5t-31 -77t-77 -31t-78.5 31.5t-32.5 76.5z" />
<glyph unicode="&#x152;" horiz-adv-x="1716" d="M86 680q0 163 50.5 299t138 225.5t204.5 139t250 49.5q49 0 138 -5.5t128 -5.5h574v-319h-131q-27 168 -27 172h-367v-455h295q8 66 29 142h115v-420h-115q-23 71 -29 141h-295v-491h375q8 67 29 176h131v-328h-580q-57 0 -156 -6t-151 -6q-155 0 -272.5 51t-189.5 144.5 t-108 218t-36 278.5zM283 698q0 -118 24 -214t74 -172t137 -118t205 -42q77 0 133 12v1057q-65 12 -135 12q-90 0 -169.5 -36.5t-139.5 -103.5t-94.5 -169t-34.5 -226z" />
<glyph unicode="&#x153;" horiz-adv-x="1785" d="M80 504q0 151 58.5 271t171 190.5t261.5 70.5q120 0 216.5 -48t148.5 -144q55 90 143.5 141t206.5 51q104 0 183.5 -33.5t127 -93.5t71.5 -135.5t24 -165.5q0 -36 -6 -88h-666q-6 -200 74.5 -294.5t244.5 -94.5q78 0 159.5 17.5t141.5 46.5l15 -150q-151 -63 -344 -63 q-295 0 -400 206q-56 -95 -151 -150.5t-225 -55.5q-115 0 -203 38t-142.5 108t-82 164.5t-27.5 211.5zM262 514q0 -114 29 -197t96 -133.5t168 -50.5q124 0 205.5 98t81.5 285q0 371 -289 371q-54 0 -103.5 -20t-93 -62t-69 -117t-25.5 -174zM1026 651h477 q3 113 -57.5 181.5t-167.5 68.5q-98 0 -166 -69t-86 -181z" />
<glyph unicode="&#x178;" horiz-adv-x="1218" d="M12 1272v110h486v-110q-74 -19 -152 -25l166 -362q66 -141 98 -221h4q14 35 31.5 73.5t41.5 89t34 72.5l164 348q-81 6 -152 25v110h471v-110q-66 -20 -123 -23l-383 -760v-352q97 -6 179 -28v-109h-543v109q82 22 178 28v350l-375 762q-55 3 -125 23zM291 1624 q0 46 32 78.5t78 32.5t77.5 -32.5t31.5 -78.5t-31.5 -77t-77.5 -31t-78 31t-32 77zM684 1624q0 46 32.5 78.5t78.5 32.5q45 0 76.5 -32.5t31.5 -78.5t-31 -77t-77 -31t-78.5 31.5t-32.5 76.5z" />
<glyph unicode="&#x2c6;" horiz-adv-x="886" d="M160 1292l278 191l289 -187l-74 -110l-217 139l-209 -139z" />
<glyph unicode="&#x2dc;" horiz-adv-x="1015" d="M186 1370q84 84 197 84q46 0 88.5 -15t70 -33t64.5 -33t74 -15q79 0 141 65l43 -125q-34 -34 -86.5 -57.5t-107.5 -23.5q-49 0 -92.5 15t-70 33t-64 33t-76.5 15q-72 0 -138 -66z" />
<glyph unicode="&#x2000;" horiz-adv-x="910" />
<glyph unicode="&#x2001;" horiz-adv-x="1821" />
<glyph unicode="&#x2002;" horiz-adv-x="910" />
<glyph unicode="&#x2003;" horiz-adv-x="1821" />
<glyph unicode="&#x2004;" horiz-adv-x="607" />
<glyph unicode="&#x2005;" horiz-adv-x="455" />
<glyph unicode="&#x2006;" horiz-adv-x="303" />
<glyph unicode="&#x2007;" horiz-adv-x="303" />
<glyph unicode="&#x2008;" horiz-adv-x="227" />
<glyph unicode="&#x2009;" horiz-adv-x="364" />
<glyph unicode="&#x200a;" horiz-adv-x="101" />
<glyph unicode="&#x2010;" horiz-adv-x="675" d="M96 440v148h484v-148h-484z" />
<glyph unicode="&#x2011;" horiz-adv-x="675" d="M96 440v148h484v-148h-484z" />
<glyph unicode="&#x2012;" horiz-adv-x="675" d="M96 440v148h484v-148h-484z" />
<glyph unicode="&#x2013;" horiz-adv-x="1024" d="M0 512v160h1024v-160h-1024z" />
<glyph unicode="&#x2014;" horiz-adv-x="2048" d="M0 512v160h2048v-160h-2048z" />
<glyph unicode="&#x2018;" horiz-adv-x="497" d="M132 1053q-45 86 6 217q54 134 198 266l80 -72q-173 -186 -88 -293q26 -40 24.5 -80.5t-34 -72t-80.5 -31.5q-72 0 -106 66z" />
<glyph unicode="&#x2019;" horiz-adv-x="497" d="M80 1044q173 186 88 293q-26 40 -24.5 81t34 72.5t80.5 31.5q72 0 106 -66q45 -86 -6 -217q-55 -134 -198 -266z" />
<glyph unicode="&#x201a;" horiz-adv-x="497" d="M80 -246q174 187 88 295q-26 39 -24.5 79.5t34 71.5t80.5 31q72 0 107 -66q45 -87 -8 -217q-54 -133 -197 -263z" />
<glyph unicode="&#x201c;" horiz-adv-x="886" d="M132 1053q-45 86 6 217q54 134 198 266l80 -72q-173 -186 -88 -293q26 -40 24.5 -80.5t-34 -72t-80.5 -31.5q-72 0 -106 66zM521 1053q-45 86 6 217q55 134 198 266l80 -72q-173 -186 -88 -293q26 -40 24.5 -80.5t-34 -72t-80.5 -31.5q-72 0 -106 66z" />
<glyph unicode="&#x201d;" horiz-adv-x="886" d="M80 1044q173 186 88 293q-26 40 -24.5 81t34 72.5t80.5 31.5q72 0 106 -66q45 -86 -6 -217q-55 -134 -198 -266zM469 1044q173 186 88 293q-26 40 -24.5 81t34 72.5t80.5 31.5q72 0 106 -66q45 -86 -6 -217q-55 -134 -198 -266z" />
<glyph unicode="&#x201e;" horiz-adv-x="886" d="M80 -246q174 187 88 295q-26 39 -24.5 79.5t34 71.5t80.5 31q72 0 107 -66q45 -87 -8 -217q-54 -133 -197 -263zM469 -246q174 187 88 295q-26 39 -24.5 79.5t34 71.5t80.5 31q72 0 107 -66q45 -87 -8 -217q-54 -133 -197 -263z" />
<glyph unicode="&#x2022;" horiz-adv-x="880" d="M182 598q0 101 72.5 174.5t173.5 73.5q102 0 175 -73t73 -175q0 -103 -72.5 -175.5t-175.5 -72.5q-101 0 -173.5 72.5t-72.5 175.5z" />
<glyph unicode="&#x2026;" horiz-adv-x="1384" d="M106 109q0 53 37 90t90 37t90 -37t37 -90t-37 -90t-90 -37t-90 37t-37 90zM555 109q0 53 37.5 90t89.5 37t89.5 -37t37.5 -90t-37.5 -90t-89.5 -37t-89.5 37t-37.5 90zM1004 109q0 53 37 90t89 37t89.5 -37t37.5 -90t-37.5 -90t-89.5 -37t-89 37t-37 90z" />
<glyph unicode="&#x202f;" horiz-adv-x="364" />
<glyph unicode="&#x2039;" horiz-adv-x="641" d="M109 504l247 370l138 -77l-203 -291l201 -287l-142 -80z" />
<glyph unicode="&#x203a;" horiz-adv-x="641" d="M147 217l203 291l-200 287l141 79l241 -364l-247 -371z" />
<glyph unicode="&#x205f;" horiz-adv-x="455" />
<glyph unicode="&#x20ac;" horiz-adv-x="1126" d="M27 459v114h161q-2 29 -2 89q0 54 2 81h-161v117h174q38 253 174 398t366 145q113 0 275 -33v-303h-115q-19 80 -22 160q-88 20 -160 20q-142 0 -220.5 -103.5t-101.5 -283.5h387v-117h-395v-57q0 -76 2 -113h393v-114h-378q27 -163 108 -242.5t229 -79.5q149 0 271 58 l22 -152q-148 -63 -340 -63q-209 0 -334.5 122t-160.5 357h-174z" />
<glyph unicode="&#x2122;" horiz-adv-x="1705" d="M90 1147v235h559v-235h-88q-14 78 -20 129h-101v-389q42 -4 115 -21v-82h-369v82q67 16 113 21v389h-100q-4 -36 -21 -129h-88zM674 784v82q35 10 88 17l69 399q-51 6 -98 18v82h297l92 -323l23 -96l18 86l103 333h293v-82q-43 -12 -97 -18l70 -399q26 -2 86 -15v-84 h-305v82q48 13 78 17l-37 233l-15 101l-24 -87l-103 -346h-145l-102 349l-21 84l-8 -68l-43 -266q26 -4 82 -17v-82h-301z" />
<glyph unicode="&#xe000;" horiz-adv-x="1013" d="M0 0v1014h1014v-1014h-1014z" />
</font>
</defs>
</svg>
